G04 EAGLE Gerber X2 export*
%TF.Part,Single*%
%TF.FileFunction,Legend,Bot,1*%
%TF.FilePolarity,Positive*%
%TF.GenerationSoftware,Autodesk,EAGLE,8.6.2*%
%TF.CreationDate,2018-02-22T14:22:40Z*%
G75*
%MOMM*%
%FSLAX34Y34*%
%LPD*%
%AMOC8*
5,1,8,0,0,1.08239X$1,22.5*%
G01*
%ADD10C,0.000000*%
%ADD11C,0.203200*%
%ADD12C,0.101600*%
%ADD13C,0.127000*%
%ADD14C,1.000000*%
%ADD15C,0.152400*%


D10*
X0Y0D02*
X591820Y0D01*
X591820Y580390D01*
X0Y580390D01*
X0Y0D01*
X572516Y17272D02*
X572518Y17362D01*
X572524Y17452D01*
X572534Y17541D01*
X572548Y17630D01*
X572566Y17718D01*
X572587Y17805D01*
X572613Y17891D01*
X572642Y17976D01*
X572675Y18060D01*
X572712Y18142D01*
X572752Y18222D01*
X572796Y18301D01*
X572843Y18377D01*
X572894Y18452D01*
X572947Y18524D01*
X573004Y18593D01*
X573064Y18660D01*
X573127Y18725D01*
X573193Y18786D01*
X573261Y18845D01*
X573332Y18900D01*
X573405Y18952D01*
X573481Y19001D01*
X573558Y19047D01*
X573638Y19089D01*
X573719Y19127D01*
X573802Y19162D01*
X573886Y19193D01*
X573972Y19221D01*
X574058Y19244D01*
X574146Y19264D01*
X574235Y19280D01*
X574324Y19292D01*
X574413Y19300D01*
X574503Y19304D01*
X574593Y19304D01*
X574683Y19300D01*
X574772Y19292D01*
X574861Y19280D01*
X574950Y19264D01*
X575038Y19244D01*
X575124Y19221D01*
X575210Y19193D01*
X575294Y19162D01*
X575377Y19127D01*
X575458Y19089D01*
X575538Y19047D01*
X575615Y19001D01*
X575691Y18952D01*
X575764Y18900D01*
X575835Y18845D01*
X575903Y18786D01*
X575969Y18725D01*
X576032Y18660D01*
X576092Y18593D01*
X576149Y18524D01*
X576202Y18452D01*
X576253Y18377D01*
X576300Y18301D01*
X576344Y18222D01*
X576384Y18142D01*
X576421Y18060D01*
X576454Y17976D01*
X576483Y17891D01*
X576509Y17805D01*
X576530Y17718D01*
X576548Y17630D01*
X576562Y17541D01*
X576572Y17452D01*
X576578Y17362D01*
X576580Y17272D01*
X576578Y17182D01*
X576572Y17092D01*
X576562Y17003D01*
X576548Y16914D01*
X576530Y16826D01*
X576509Y16739D01*
X576483Y16653D01*
X576454Y16568D01*
X576421Y16484D01*
X576384Y16402D01*
X576344Y16322D01*
X576300Y16243D01*
X576253Y16167D01*
X576202Y16092D01*
X576149Y16020D01*
X576092Y15951D01*
X576032Y15884D01*
X575969Y15819D01*
X575903Y15758D01*
X575835Y15699D01*
X575764Y15644D01*
X575691Y15592D01*
X575615Y15543D01*
X575538Y15497D01*
X575458Y15455D01*
X575377Y15417D01*
X575294Y15382D01*
X575210Y15351D01*
X575124Y15323D01*
X575038Y15300D01*
X574950Y15280D01*
X574861Y15264D01*
X574772Y15252D01*
X574683Y15244D01*
X574593Y15240D01*
X574503Y15240D01*
X574413Y15244D01*
X574324Y15252D01*
X574235Y15264D01*
X574146Y15280D01*
X574058Y15300D01*
X573972Y15323D01*
X573886Y15351D01*
X573802Y15382D01*
X573719Y15417D01*
X573638Y15455D01*
X573558Y15497D01*
X573481Y15543D01*
X573405Y15592D01*
X573332Y15644D01*
X573261Y15699D01*
X573193Y15758D01*
X573127Y15819D01*
X573064Y15884D01*
X573004Y15951D01*
X572947Y16020D01*
X572894Y16092D01*
X572843Y16167D01*
X572796Y16243D01*
X572752Y16322D01*
X572712Y16402D01*
X572675Y16484D01*
X572642Y16568D01*
X572613Y16653D01*
X572587Y16739D01*
X572566Y16826D01*
X572548Y16914D01*
X572534Y17003D01*
X572524Y17092D01*
X572518Y17182D01*
X572516Y17272D01*
X15240Y17272D02*
X15242Y17362D01*
X15248Y17452D01*
X15258Y17541D01*
X15272Y17630D01*
X15290Y17718D01*
X15311Y17805D01*
X15337Y17891D01*
X15366Y17976D01*
X15399Y18060D01*
X15436Y18142D01*
X15476Y18222D01*
X15520Y18301D01*
X15567Y18377D01*
X15618Y18452D01*
X15671Y18524D01*
X15728Y18593D01*
X15788Y18660D01*
X15851Y18725D01*
X15917Y18786D01*
X15985Y18845D01*
X16056Y18900D01*
X16129Y18952D01*
X16205Y19001D01*
X16282Y19047D01*
X16362Y19089D01*
X16443Y19127D01*
X16526Y19162D01*
X16610Y19193D01*
X16696Y19221D01*
X16782Y19244D01*
X16870Y19264D01*
X16959Y19280D01*
X17048Y19292D01*
X17137Y19300D01*
X17227Y19304D01*
X17317Y19304D01*
X17407Y19300D01*
X17496Y19292D01*
X17585Y19280D01*
X17674Y19264D01*
X17762Y19244D01*
X17848Y19221D01*
X17934Y19193D01*
X18018Y19162D01*
X18101Y19127D01*
X18182Y19089D01*
X18262Y19047D01*
X18339Y19001D01*
X18415Y18952D01*
X18488Y18900D01*
X18559Y18845D01*
X18627Y18786D01*
X18693Y18725D01*
X18756Y18660D01*
X18816Y18593D01*
X18873Y18524D01*
X18926Y18452D01*
X18977Y18377D01*
X19024Y18301D01*
X19068Y18222D01*
X19108Y18142D01*
X19145Y18060D01*
X19178Y17976D01*
X19207Y17891D01*
X19233Y17805D01*
X19254Y17718D01*
X19272Y17630D01*
X19286Y17541D01*
X19296Y17452D01*
X19302Y17362D01*
X19304Y17272D01*
X19302Y17182D01*
X19296Y17092D01*
X19286Y17003D01*
X19272Y16914D01*
X19254Y16826D01*
X19233Y16739D01*
X19207Y16653D01*
X19178Y16568D01*
X19145Y16484D01*
X19108Y16402D01*
X19068Y16322D01*
X19024Y16243D01*
X18977Y16167D01*
X18926Y16092D01*
X18873Y16020D01*
X18816Y15951D01*
X18756Y15884D01*
X18693Y15819D01*
X18627Y15758D01*
X18559Y15699D01*
X18488Y15644D01*
X18415Y15592D01*
X18339Y15543D01*
X18262Y15497D01*
X18182Y15455D01*
X18101Y15417D01*
X18018Y15382D01*
X17934Y15351D01*
X17848Y15323D01*
X17762Y15300D01*
X17674Y15280D01*
X17585Y15264D01*
X17496Y15252D01*
X17407Y15244D01*
X17317Y15240D01*
X17227Y15240D01*
X17137Y15244D01*
X17048Y15252D01*
X16959Y15264D01*
X16870Y15280D01*
X16782Y15300D01*
X16696Y15323D01*
X16610Y15351D01*
X16526Y15382D01*
X16443Y15417D01*
X16362Y15455D01*
X16282Y15497D01*
X16205Y15543D01*
X16129Y15592D01*
X16056Y15644D01*
X15985Y15699D01*
X15917Y15758D01*
X15851Y15819D01*
X15788Y15884D01*
X15728Y15951D01*
X15671Y16020D01*
X15618Y16092D01*
X15567Y16167D01*
X15520Y16243D01*
X15476Y16322D01*
X15436Y16402D01*
X15399Y16484D01*
X15366Y16568D01*
X15337Y16653D01*
X15311Y16739D01*
X15290Y16826D01*
X15272Y16914D01*
X15258Y17003D01*
X15248Y17092D01*
X15242Y17182D01*
X15240Y17272D01*
X572516Y563118D02*
X572518Y563208D01*
X572524Y563298D01*
X572534Y563387D01*
X572548Y563476D01*
X572566Y563564D01*
X572587Y563651D01*
X572613Y563737D01*
X572642Y563822D01*
X572675Y563906D01*
X572712Y563988D01*
X572752Y564068D01*
X572796Y564147D01*
X572843Y564223D01*
X572894Y564298D01*
X572947Y564370D01*
X573004Y564439D01*
X573064Y564506D01*
X573127Y564571D01*
X573193Y564632D01*
X573261Y564691D01*
X573332Y564746D01*
X573405Y564798D01*
X573481Y564847D01*
X573558Y564893D01*
X573638Y564935D01*
X573719Y564973D01*
X573802Y565008D01*
X573886Y565039D01*
X573972Y565067D01*
X574058Y565090D01*
X574146Y565110D01*
X574235Y565126D01*
X574324Y565138D01*
X574413Y565146D01*
X574503Y565150D01*
X574593Y565150D01*
X574683Y565146D01*
X574772Y565138D01*
X574861Y565126D01*
X574950Y565110D01*
X575038Y565090D01*
X575124Y565067D01*
X575210Y565039D01*
X575294Y565008D01*
X575377Y564973D01*
X575458Y564935D01*
X575538Y564893D01*
X575615Y564847D01*
X575691Y564798D01*
X575764Y564746D01*
X575835Y564691D01*
X575903Y564632D01*
X575969Y564571D01*
X576032Y564506D01*
X576092Y564439D01*
X576149Y564370D01*
X576202Y564298D01*
X576253Y564223D01*
X576300Y564147D01*
X576344Y564068D01*
X576384Y563988D01*
X576421Y563906D01*
X576454Y563822D01*
X576483Y563737D01*
X576509Y563651D01*
X576530Y563564D01*
X576548Y563476D01*
X576562Y563387D01*
X576572Y563298D01*
X576578Y563208D01*
X576580Y563118D01*
X576578Y563028D01*
X576572Y562938D01*
X576562Y562849D01*
X576548Y562760D01*
X576530Y562672D01*
X576509Y562585D01*
X576483Y562499D01*
X576454Y562414D01*
X576421Y562330D01*
X576384Y562248D01*
X576344Y562168D01*
X576300Y562089D01*
X576253Y562013D01*
X576202Y561938D01*
X576149Y561866D01*
X576092Y561797D01*
X576032Y561730D01*
X575969Y561665D01*
X575903Y561604D01*
X575835Y561545D01*
X575764Y561490D01*
X575691Y561438D01*
X575615Y561389D01*
X575538Y561343D01*
X575458Y561301D01*
X575377Y561263D01*
X575294Y561228D01*
X575210Y561197D01*
X575124Y561169D01*
X575038Y561146D01*
X574950Y561126D01*
X574861Y561110D01*
X574772Y561098D01*
X574683Y561090D01*
X574593Y561086D01*
X574503Y561086D01*
X574413Y561090D01*
X574324Y561098D01*
X574235Y561110D01*
X574146Y561126D01*
X574058Y561146D01*
X573972Y561169D01*
X573886Y561197D01*
X573802Y561228D01*
X573719Y561263D01*
X573638Y561301D01*
X573558Y561343D01*
X573481Y561389D01*
X573405Y561438D01*
X573332Y561490D01*
X573261Y561545D01*
X573193Y561604D01*
X573127Y561665D01*
X573064Y561730D01*
X573004Y561797D01*
X572947Y561866D01*
X572894Y561938D01*
X572843Y562013D01*
X572796Y562089D01*
X572752Y562168D01*
X572712Y562248D01*
X572675Y562330D01*
X572642Y562414D01*
X572613Y562499D01*
X572587Y562585D01*
X572566Y562672D01*
X572548Y562760D01*
X572534Y562849D01*
X572524Y562938D01*
X572518Y563028D01*
X572516Y563118D01*
X213995Y415290D02*
X213997Y415423D01*
X214003Y415556D01*
X214013Y415688D01*
X214027Y415821D01*
X214045Y415952D01*
X214066Y416084D01*
X214092Y416214D01*
X214122Y416344D01*
X214155Y416473D01*
X214192Y416600D01*
X214234Y416727D01*
X214278Y416852D01*
X214327Y416976D01*
X214379Y417098D01*
X214435Y417219D01*
X214495Y417338D01*
X214558Y417455D01*
X214624Y417570D01*
X214694Y417683D01*
X214767Y417794D01*
X214844Y417903D01*
X214924Y418009D01*
X215007Y418113D01*
X215093Y418215D01*
X215182Y418313D01*
X215273Y418409D01*
X215368Y418503D01*
X215466Y418593D01*
X215566Y418681D01*
X215669Y418765D01*
X215774Y418847D01*
X215881Y418925D01*
X215991Y419000D01*
X216103Y419071D01*
X216218Y419139D01*
X216334Y419204D01*
X216452Y419266D01*
X216572Y419323D01*
X216693Y419377D01*
X216816Y419428D01*
X216941Y419474D01*
X217066Y419517D01*
X217194Y419557D01*
X217322Y419592D01*
X217451Y419624D01*
X217581Y419651D01*
X217712Y419675D01*
X217843Y419695D01*
X217975Y419711D01*
X218108Y419723D01*
X218241Y419731D01*
X218374Y419735D01*
X218506Y419735D01*
X218639Y419731D01*
X218772Y419723D01*
X218905Y419711D01*
X219037Y419695D01*
X219168Y419675D01*
X219299Y419651D01*
X219429Y419624D01*
X219558Y419592D01*
X219686Y419557D01*
X219814Y419517D01*
X219939Y419474D01*
X220064Y419428D01*
X220187Y419377D01*
X220308Y419323D01*
X220428Y419266D01*
X220546Y419204D01*
X220663Y419139D01*
X220777Y419071D01*
X220889Y419000D01*
X220999Y418925D01*
X221106Y418847D01*
X221211Y418765D01*
X221314Y418681D01*
X221414Y418593D01*
X221512Y418503D01*
X221607Y418409D01*
X221698Y418313D01*
X221787Y418215D01*
X221873Y418113D01*
X221956Y418009D01*
X222036Y417903D01*
X222113Y417794D01*
X222186Y417683D01*
X222256Y417570D01*
X222322Y417455D01*
X222385Y417338D01*
X222445Y417219D01*
X222501Y417098D01*
X222553Y416976D01*
X222602Y416852D01*
X222646Y416727D01*
X222688Y416600D01*
X222725Y416473D01*
X222758Y416344D01*
X222788Y416214D01*
X222814Y416084D01*
X222835Y415952D01*
X222853Y415821D01*
X222867Y415688D01*
X222877Y415556D01*
X222883Y415423D01*
X222885Y415290D01*
X222883Y415157D01*
X222877Y415024D01*
X222867Y414892D01*
X222853Y414759D01*
X222835Y414628D01*
X222814Y414496D01*
X222788Y414366D01*
X222758Y414236D01*
X222725Y414107D01*
X222688Y413980D01*
X222646Y413853D01*
X222602Y413728D01*
X222553Y413604D01*
X222501Y413482D01*
X222445Y413361D01*
X222385Y413242D01*
X222322Y413125D01*
X222256Y413010D01*
X222186Y412897D01*
X222113Y412786D01*
X222036Y412677D01*
X221956Y412571D01*
X221873Y412467D01*
X221787Y412365D01*
X221698Y412267D01*
X221607Y412171D01*
X221512Y412077D01*
X221414Y411987D01*
X221314Y411899D01*
X221211Y411815D01*
X221106Y411733D01*
X220999Y411655D01*
X220889Y411580D01*
X220777Y411509D01*
X220662Y411441D01*
X220546Y411376D01*
X220428Y411314D01*
X220308Y411257D01*
X220187Y411203D01*
X220064Y411152D01*
X219939Y411106D01*
X219814Y411063D01*
X219686Y411023D01*
X219558Y410988D01*
X219429Y410956D01*
X219299Y410929D01*
X219168Y410905D01*
X219037Y410885D01*
X218905Y410869D01*
X218772Y410857D01*
X218639Y410849D01*
X218506Y410845D01*
X218374Y410845D01*
X218241Y410849D01*
X218108Y410857D01*
X217975Y410869D01*
X217843Y410885D01*
X217712Y410905D01*
X217581Y410929D01*
X217451Y410956D01*
X217322Y410988D01*
X217194Y411023D01*
X217066Y411063D01*
X216941Y411106D01*
X216816Y411152D01*
X216693Y411203D01*
X216572Y411257D01*
X216452Y411314D01*
X216334Y411376D01*
X216217Y411441D01*
X216103Y411509D01*
X215991Y411580D01*
X215881Y411655D01*
X215774Y411733D01*
X215669Y411815D01*
X215566Y411899D01*
X215466Y411987D01*
X215368Y412077D01*
X215273Y412171D01*
X215182Y412267D01*
X215093Y412365D01*
X215007Y412467D01*
X214924Y412571D01*
X214844Y412677D01*
X214767Y412786D01*
X214694Y412897D01*
X214624Y413010D01*
X214558Y413125D01*
X214495Y413242D01*
X214435Y413361D01*
X214379Y413482D01*
X214327Y413604D01*
X214278Y413728D01*
X214234Y413853D01*
X214192Y413980D01*
X214155Y414107D01*
X214122Y414236D01*
X214092Y414366D01*
X214066Y414496D01*
X214045Y414628D01*
X214027Y414759D01*
X214013Y414892D01*
X214003Y415024D01*
X213997Y415157D01*
X213995Y415290D01*
X203835Y364490D02*
X203837Y364623D01*
X203843Y364756D01*
X203853Y364888D01*
X203867Y365021D01*
X203885Y365152D01*
X203906Y365284D01*
X203932Y365414D01*
X203962Y365544D01*
X203995Y365673D01*
X204032Y365800D01*
X204074Y365927D01*
X204118Y366052D01*
X204167Y366176D01*
X204219Y366298D01*
X204275Y366419D01*
X204335Y366538D01*
X204398Y366655D01*
X204464Y366770D01*
X204534Y366883D01*
X204607Y366994D01*
X204684Y367103D01*
X204764Y367209D01*
X204847Y367313D01*
X204933Y367415D01*
X205022Y367513D01*
X205113Y367609D01*
X205208Y367703D01*
X205306Y367793D01*
X205406Y367881D01*
X205509Y367965D01*
X205614Y368047D01*
X205721Y368125D01*
X205831Y368200D01*
X205943Y368271D01*
X206058Y368339D01*
X206174Y368404D01*
X206292Y368466D01*
X206412Y368523D01*
X206533Y368577D01*
X206656Y368628D01*
X206781Y368674D01*
X206906Y368717D01*
X207034Y368757D01*
X207162Y368792D01*
X207291Y368824D01*
X207421Y368851D01*
X207552Y368875D01*
X207683Y368895D01*
X207815Y368911D01*
X207948Y368923D01*
X208081Y368931D01*
X208214Y368935D01*
X208346Y368935D01*
X208479Y368931D01*
X208612Y368923D01*
X208745Y368911D01*
X208877Y368895D01*
X209008Y368875D01*
X209139Y368851D01*
X209269Y368824D01*
X209398Y368792D01*
X209526Y368757D01*
X209654Y368717D01*
X209779Y368674D01*
X209904Y368628D01*
X210027Y368577D01*
X210148Y368523D01*
X210268Y368466D01*
X210386Y368404D01*
X210503Y368339D01*
X210617Y368271D01*
X210729Y368200D01*
X210839Y368125D01*
X210946Y368047D01*
X211051Y367965D01*
X211154Y367881D01*
X211254Y367793D01*
X211352Y367703D01*
X211447Y367609D01*
X211538Y367513D01*
X211627Y367415D01*
X211713Y367313D01*
X211796Y367209D01*
X211876Y367103D01*
X211953Y366994D01*
X212026Y366883D01*
X212096Y366770D01*
X212162Y366655D01*
X212225Y366538D01*
X212285Y366419D01*
X212341Y366298D01*
X212393Y366176D01*
X212442Y366052D01*
X212486Y365927D01*
X212528Y365800D01*
X212565Y365673D01*
X212598Y365544D01*
X212628Y365414D01*
X212654Y365284D01*
X212675Y365152D01*
X212693Y365021D01*
X212707Y364888D01*
X212717Y364756D01*
X212723Y364623D01*
X212725Y364490D01*
X212723Y364357D01*
X212717Y364224D01*
X212707Y364092D01*
X212693Y363959D01*
X212675Y363828D01*
X212654Y363696D01*
X212628Y363566D01*
X212598Y363436D01*
X212565Y363307D01*
X212528Y363180D01*
X212486Y363053D01*
X212442Y362928D01*
X212393Y362804D01*
X212341Y362682D01*
X212285Y362561D01*
X212225Y362442D01*
X212162Y362325D01*
X212096Y362210D01*
X212026Y362097D01*
X211953Y361986D01*
X211876Y361877D01*
X211796Y361771D01*
X211713Y361667D01*
X211627Y361565D01*
X211538Y361467D01*
X211447Y361371D01*
X211352Y361277D01*
X211254Y361187D01*
X211154Y361099D01*
X211051Y361015D01*
X210946Y360933D01*
X210839Y360855D01*
X210729Y360780D01*
X210617Y360709D01*
X210502Y360641D01*
X210386Y360576D01*
X210268Y360514D01*
X210148Y360457D01*
X210027Y360403D01*
X209904Y360352D01*
X209779Y360306D01*
X209654Y360263D01*
X209526Y360223D01*
X209398Y360188D01*
X209269Y360156D01*
X209139Y360129D01*
X209008Y360105D01*
X208877Y360085D01*
X208745Y360069D01*
X208612Y360057D01*
X208479Y360049D01*
X208346Y360045D01*
X208214Y360045D01*
X208081Y360049D01*
X207948Y360057D01*
X207815Y360069D01*
X207683Y360085D01*
X207552Y360105D01*
X207421Y360129D01*
X207291Y360156D01*
X207162Y360188D01*
X207034Y360223D01*
X206906Y360263D01*
X206781Y360306D01*
X206656Y360352D01*
X206533Y360403D01*
X206412Y360457D01*
X206292Y360514D01*
X206174Y360576D01*
X206057Y360641D01*
X205943Y360709D01*
X205831Y360780D01*
X205721Y360855D01*
X205614Y360933D01*
X205509Y361015D01*
X205406Y361099D01*
X205306Y361187D01*
X205208Y361277D01*
X205113Y361371D01*
X205022Y361467D01*
X204933Y361565D01*
X204847Y361667D01*
X204764Y361771D01*
X204684Y361877D01*
X204607Y361986D01*
X204534Y362097D01*
X204464Y362210D01*
X204398Y362325D01*
X204335Y362442D01*
X204275Y362561D01*
X204219Y362682D01*
X204167Y362804D01*
X204118Y362928D01*
X204074Y363053D01*
X204032Y363180D01*
X203995Y363307D01*
X203962Y363436D01*
X203932Y363566D01*
X203906Y363696D01*
X203885Y363828D01*
X203867Y363959D01*
X203853Y364092D01*
X203843Y364224D01*
X203837Y364357D01*
X203835Y364490D01*
X224155Y364490D02*
X224157Y364623D01*
X224163Y364756D01*
X224173Y364888D01*
X224187Y365021D01*
X224205Y365152D01*
X224226Y365284D01*
X224252Y365414D01*
X224282Y365544D01*
X224315Y365673D01*
X224352Y365800D01*
X224394Y365927D01*
X224438Y366052D01*
X224487Y366176D01*
X224539Y366298D01*
X224595Y366419D01*
X224655Y366538D01*
X224718Y366655D01*
X224784Y366770D01*
X224854Y366883D01*
X224927Y366994D01*
X225004Y367103D01*
X225084Y367209D01*
X225167Y367313D01*
X225253Y367415D01*
X225342Y367513D01*
X225433Y367609D01*
X225528Y367703D01*
X225626Y367793D01*
X225726Y367881D01*
X225829Y367965D01*
X225934Y368047D01*
X226041Y368125D01*
X226151Y368200D01*
X226263Y368271D01*
X226378Y368339D01*
X226494Y368404D01*
X226612Y368466D01*
X226732Y368523D01*
X226853Y368577D01*
X226976Y368628D01*
X227101Y368674D01*
X227226Y368717D01*
X227354Y368757D01*
X227482Y368792D01*
X227611Y368824D01*
X227741Y368851D01*
X227872Y368875D01*
X228003Y368895D01*
X228135Y368911D01*
X228268Y368923D01*
X228401Y368931D01*
X228534Y368935D01*
X228666Y368935D01*
X228799Y368931D01*
X228932Y368923D01*
X229065Y368911D01*
X229197Y368895D01*
X229328Y368875D01*
X229459Y368851D01*
X229589Y368824D01*
X229718Y368792D01*
X229846Y368757D01*
X229974Y368717D01*
X230099Y368674D01*
X230224Y368628D01*
X230347Y368577D01*
X230468Y368523D01*
X230588Y368466D01*
X230706Y368404D01*
X230823Y368339D01*
X230937Y368271D01*
X231049Y368200D01*
X231159Y368125D01*
X231266Y368047D01*
X231371Y367965D01*
X231474Y367881D01*
X231574Y367793D01*
X231672Y367703D01*
X231767Y367609D01*
X231858Y367513D01*
X231947Y367415D01*
X232033Y367313D01*
X232116Y367209D01*
X232196Y367103D01*
X232273Y366994D01*
X232346Y366883D01*
X232416Y366770D01*
X232482Y366655D01*
X232545Y366538D01*
X232605Y366419D01*
X232661Y366298D01*
X232713Y366176D01*
X232762Y366052D01*
X232806Y365927D01*
X232848Y365800D01*
X232885Y365673D01*
X232918Y365544D01*
X232948Y365414D01*
X232974Y365284D01*
X232995Y365152D01*
X233013Y365021D01*
X233027Y364888D01*
X233037Y364756D01*
X233043Y364623D01*
X233045Y364490D01*
X233043Y364357D01*
X233037Y364224D01*
X233027Y364092D01*
X233013Y363959D01*
X232995Y363828D01*
X232974Y363696D01*
X232948Y363566D01*
X232918Y363436D01*
X232885Y363307D01*
X232848Y363180D01*
X232806Y363053D01*
X232762Y362928D01*
X232713Y362804D01*
X232661Y362682D01*
X232605Y362561D01*
X232545Y362442D01*
X232482Y362325D01*
X232416Y362210D01*
X232346Y362097D01*
X232273Y361986D01*
X232196Y361877D01*
X232116Y361771D01*
X232033Y361667D01*
X231947Y361565D01*
X231858Y361467D01*
X231767Y361371D01*
X231672Y361277D01*
X231574Y361187D01*
X231474Y361099D01*
X231371Y361015D01*
X231266Y360933D01*
X231159Y360855D01*
X231049Y360780D01*
X230937Y360709D01*
X230822Y360641D01*
X230706Y360576D01*
X230588Y360514D01*
X230468Y360457D01*
X230347Y360403D01*
X230224Y360352D01*
X230099Y360306D01*
X229974Y360263D01*
X229846Y360223D01*
X229718Y360188D01*
X229589Y360156D01*
X229459Y360129D01*
X229328Y360105D01*
X229197Y360085D01*
X229065Y360069D01*
X228932Y360057D01*
X228799Y360049D01*
X228666Y360045D01*
X228534Y360045D01*
X228401Y360049D01*
X228268Y360057D01*
X228135Y360069D01*
X228003Y360085D01*
X227872Y360105D01*
X227741Y360129D01*
X227611Y360156D01*
X227482Y360188D01*
X227354Y360223D01*
X227226Y360263D01*
X227101Y360306D01*
X226976Y360352D01*
X226853Y360403D01*
X226732Y360457D01*
X226612Y360514D01*
X226494Y360576D01*
X226377Y360641D01*
X226263Y360709D01*
X226151Y360780D01*
X226041Y360855D01*
X225934Y360933D01*
X225829Y361015D01*
X225726Y361099D01*
X225626Y361187D01*
X225528Y361277D01*
X225433Y361371D01*
X225342Y361467D01*
X225253Y361565D01*
X225167Y361667D01*
X225084Y361771D01*
X225004Y361877D01*
X224927Y361986D01*
X224854Y362097D01*
X224784Y362210D01*
X224718Y362325D01*
X224655Y362442D01*
X224595Y362561D01*
X224539Y362682D01*
X224487Y362804D01*
X224438Y362928D01*
X224394Y363053D01*
X224352Y363180D01*
X224315Y363307D01*
X224282Y363436D01*
X224252Y363566D01*
X224226Y363696D01*
X224205Y363828D01*
X224187Y363959D01*
X224173Y364092D01*
X224163Y364224D01*
X224157Y364357D01*
X224155Y364490D01*
D11*
X524858Y79916D02*
X524858Y65916D01*
X504858Y65916D01*
X504858Y79916D01*
X524858Y99916D02*
X524858Y113916D01*
X504858Y113916D01*
X504858Y99916D01*
X514858Y92916D02*
X521858Y92916D01*
X514858Y92916D02*
X507858Y92916D01*
X514858Y92916D02*
X520858Y86916D01*
X508858Y86916D01*
X514858Y92916D01*
X496984Y196436D02*
X496984Y210436D01*
X516984Y210436D01*
X516984Y196436D01*
X496984Y176436D02*
X496984Y162436D01*
X516984Y162436D01*
X516984Y176436D01*
X506984Y183436D02*
X499984Y183436D01*
X506984Y183436D02*
X513984Y183436D01*
X506984Y183436D02*
X500984Y189436D01*
X512984Y189436D01*
X506984Y183436D01*
D10*
X81450Y59690D02*
X81452Y59824D01*
X81458Y59958D01*
X81468Y60091D01*
X81482Y60225D01*
X81500Y60358D01*
X81522Y60490D01*
X81547Y60621D01*
X81577Y60752D01*
X81611Y60882D01*
X81648Y61010D01*
X81689Y61138D01*
X81734Y61264D01*
X81783Y61389D01*
X81835Y61512D01*
X81891Y61634D01*
X81951Y61754D01*
X82014Y61872D01*
X82081Y61988D01*
X82151Y62102D01*
X82225Y62214D01*
X82302Y62324D01*
X82382Y62432D01*
X82465Y62537D01*
X82551Y62639D01*
X82640Y62739D01*
X82733Y62836D01*
X82828Y62931D01*
X82926Y63022D01*
X83026Y63111D01*
X83129Y63196D01*
X83235Y63279D01*
X83343Y63358D01*
X83453Y63434D01*
X83566Y63507D01*
X83681Y63576D01*
X83797Y63642D01*
X83916Y63704D01*
X84036Y63763D01*
X84159Y63818D01*
X84282Y63870D01*
X84407Y63917D01*
X84534Y63961D01*
X84662Y64002D01*
X84791Y64038D01*
X84921Y64071D01*
X85052Y64099D01*
X85183Y64124D01*
X85316Y64145D01*
X85449Y64162D01*
X85582Y64175D01*
X85716Y64184D01*
X85850Y64189D01*
X85984Y64190D01*
X86117Y64187D01*
X86251Y64180D01*
X86385Y64169D01*
X86518Y64154D01*
X86651Y64135D01*
X86783Y64112D01*
X86914Y64086D01*
X87044Y64055D01*
X87174Y64020D01*
X87302Y63982D01*
X87429Y63940D01*
X87555Y63894D01*
X87680Y63844D01*
X87803Y63791D01*
X87924Y63734D01*
X88044Y63673D01*
X88161Y63609D01*
X88277Y63542D01*
X88391Y63471D01*
X88502Y63396D01*
X88611Y63319D01*
X88718Y63238D01*
X88823Y63154D01*
X88924Y63067D01*
X89024Y62977D01*
X89120Y62884D01*
X89214Y62788D01*
X89305Y62689D01*
X89392Y62588D01*
X89477Y62484D01*
X89559Y62378D01*
X89637Y62270D01*
X89712Y62159D01*
X89784Y62046D01*
X89853Y61930D01*
X89918Y61813D01*
X89979Y61694D01*
X90037Y61573D01*
X90091Y61451D01*
X90142Y61327D01*
X90189Y61201D01*
X90232Y61074D01*
X90271Y60946D01*
X90307Y60817D01*
X90338Y60687D01*
X90366Y60556D01*
X90390Y60424D01*
X90410Y60291D01*
X90426Y60158D01*
X90438Y60025D01*
X90446Y59891D01*
X90450Y59757D01*
X90450Y59623D01*
X90446Y59489D01*
X90438Y59355D01*
X90426Y59222D01*
X90410Y59089D01*
X90390Y58956D01*
X90366Y58824D01*
X90338Y58693D01*
X90307Y58563D01*
X90271Y58434D01*
X90232Y58306D01*
X90189Y58179D01*
X90142Y58053D01*
X90091Y57929D01*
X90037Y57807D01*
X89979Y57686D01*
X89918Y57567D01*
X89853Y57450D01*
X89784Y57334D01*
X89712Y57221D01*
X89637Y57110D01*
X89559Y57002D01*
X89477Y56896D01*
X89392Y56792D01*
X89305Y56691D01*
X89214Y56592D01*
X89120Y56496D01*
X89024Y56403D01*
X88924Y56313D01*
X88823Y56226D01*
X88718Y56142D01*
X88611Y56061D01*
X88502Y55984D01*
X88391Y55909D01*
X88277Y55838D01*
X88161Y55771D01*
X88044Y55707D01*
X87924Y55646D01*
X87803Y55589D01*
X87680Y55536D01*
X87555Y55486D01*
X87429Y55440D01*
X87302Y55398D01*
X87174Y55360D01*
X87044Y55325D01*
X86914Y55294D01*
X86783Y55268D01*
X86651Y55245D01*
X86518Y55226D01*
X86385Y55211D01*
X86251Y55200D01*
X86117Y55193D01*
X85984Y55190D01*
X85850Y55191D01*
X85716Y55196D01*
X85582Y55205D01*
X85449Y55218D01*
X85316Y55235D01*
X85183Y55256D01*
X85052Y55281D01*
X84921Y55309D01*
X84791Y55342D01*
X84662Y55378D01*
X84534Y55419D01*
X84407Y55463D01*
X84282Y55510D01*
X84159Y55562D01*
X84036Y55617D01*
X83916Y55676D01*
X83797Y55738D01*
X83681Y55804D01*
X83566Y55873D01*
X83453Y55946D01*
X83343Y56022D01*
X83235Y56101D01*
X83129Y56184D01*
X83026Y56269D01*
X82926Y56358D01*
X82828Y56449D01*
X82733Y56544D01*
X82640Y56641D01*
X82551Y56741D01*
X82465Y56843D01*
X82382Y56948D01*
X82302Y57056D01*
X82225Y57166D01*
X82151Y57278D01*
X82081Y57392D01*
X82014Y57508D01*
X81951Y57626D01*
X81891Y57746D01*
X81835Y57868D01*
X81783Y57991D01*
X81734Y58116D01*
X81689Y58242D01*
X81648Y58370D01*
X81611Y58498D01*
X81577Y58628D01*
X81547Y58759D01*
X81522Y58890D01*
X81500Y59022D01*
X81482Y59155D01*
X81468Y59289D01*
X81458Y59422D01*
X81452Y59556D01*
X81450Y59690D01*
X125450Y59690D02*
X125452Y59824D01*
X125458Y59958D01*
X125468Y60091D01*
X125482Y60225D01*
X125500Y60358D01*
X125522Y60490D01*
X125547Y60621D01*
X125577Y60752D01*
X125611Y60882D01*
X125648Y61010D01*
X125689Y61138D01*
X125734Y61264D01*
X125783Y61389D01*
X125835Y61512D01*
X125891Y61634D01*
X125951Y61754D01*
X126014Y61872D01*
X126081Y61988D01*
X126151Y62102D01*
X126225Y62214D01*
X126302Y62324D01*
X126382Y62432D01*
X126465Y62537D01*
X126551Y62639D01*
X126640Y62739D01*
X126733Y62836D01*
X126828Y62931D01*
X126926Y63022D01*
X127026Y63111D01*
X127129Y63196D01*
X127235Y63279D01*
X127343Y63358D01*
X127453Y63434D01*
X127566Y63507D01*
X127681Y63576D01*
X127797Y63642D01*
X127916Y63704D01*
X128036Y63763D01*
X128159Y63818D01*
X128282Y63870D01*
X128407Y63917D01*
X128534Y63961D01*
X128662Y64002D01*
X128791Y64038D01*
X128921Y64071D01*
X129052Y64099D01*
X129183Y64124D01*
X129316Y64145D01*
X129449Y64162D01*
X129582Y64175D01*
X129716Y64184D01*
X129850Y64189D01*
X129984Y64190D01*
X130117Y64187D01*
X130251Y64180D01*
X130385Y64169D01*
X130518Y64154D01*
X130651Y64135D01*
X130783Y64112D01*
X130914Y64086D01*
X131044Y64055D01*
X131174Y64020D01*
X131302Y63982D01*
X131429Y63940D01*
X131555Y63894D01*
X131680Y63844D01*
X131803Y63791D01*
X131924Y63734D01*
X132044Y63673D01*
X132161Y63609D01*
X132277Y63542D01*
X132391Y63471D01*
X132502Y63396D01*
X132611Y63319D01*
X132718Y63238D01*
X132823Y63154D01*
X132924Y63067D01*
X133024Y62977D01*
X133120Y62884D01*
X133214Y62788D01*
X133305Y62689D01*
X133392Y62588D01*
X133477Y62484D01*
X133559Y62378D01*
X133637Y62270D01*
X133712Y62159D01*
X133784Y62046D01*
X133853Y61930D01*
X133918Y61813D01*
X133979Y61694D01*
X134037Y61573D01*
X134091Y61451D01*
X134142Y61327D01*
X134189Y61201D01*
X134232Y61074D01*
X134271Y60946D01*
X134307Y60817D01*
X134338Y60687D01*
X134366Y60556D01*
X134390Y60424D01*
X134410Y60291D01*
X134426Y60158D01*
X134438Y60025D01*
X134446Y59891D01*
X134450Y59757D01*
X134450Y59623D01*
X134446Y59489D01*
X134438Y59355D01*
X134426Y59222D01*
X134410Y59089D01*
X134390Y58956D01*
X134366Y58824D01*
X134338Y58693D01*
X134307Y58563D01*
X134271Y58434D01*
X134232Y58306D01*
X134189Y58179D01*
X134142Y58053D01*
X134091Y57929D01*
X134037Y57807D01*
X133979Y57686D01*
X133918Y57567D01*
X133853Y57450D01*
X133784Y57334D01*
X133712Y57221D01*
X133637Y57110D01*
X133559Y57002D01*
X133477Y56896D01*
X133392Y56792D01*
X133305Y56691D01*
X133214Y56592D01*
X133120Y56496D01*
X133024Y56403D01*
X132924Y56313D01*
X132823Y56226D01*
X132718Y56142D01*
X132611Y56061D01*
X132502Y55984D01*
X132391Y55909D01*
X132277Y55838D01*
X132161Y55771D01*
X132044Y55707D01*
X131924Y55646D01*
X131803Y55589D01*
X131680Y55536D01*
X131555Y55486D01*
X131429Y55440D01*
X131302Y55398D01*
X131174Y55360D01*
X131044Y55325D01*
X130914Y55294D01*
X130783Y55268D01*
X130651Y55245D01*
X130518Y55226D01*
X130385Y55211D01*
X130251Y55200D01*
X130117Y55193D01*
X129984Y55190D01*
X129850Y55191D01*
X129716Y55196D01*
X129582Y55205D01*
X129449Y55218D01*
X129316Y55235D01*
X129183Y55256D01*
X129052Y55281D01*
X128921Y55309D01*
X128791Y55342D01*
X128662Y55378D01*
X128534Y55419D01*
X128407Y55463D01*
X128282Y55510D01*
X128159Y55562D01*
X128036Y55617D01*
X127916Y55676D01*
X127797Y55738D01*
X127681Y55804D01*
X127566Y55873D01*
X127453Y55946D01*
X127343Y56022D01*
X127235Y56101D01*
X127129Y56184D01*
X127026Y56269D01*
X126926Y56358D01*
X126828Y56449D01*
X126733Y56544D01*
X126640Y56641D01*
X126551Y56741D01*
X126465Y56843D01*
X126382Y56948D01*
X126302Y57056D01*
X126225Y57166D01*
X126151Y57278D01*
X126081Y57392D01*
X126014Y57508D01*
X125951Y57626D01*
X125891Y57746D01*
X125835Y57868D01*
X125783Y57991D01*
X125734Y58116D01*
X125689Y58242D01*
X125648Y58370D01*
X125611Y58498D01*
X125577Y58628D01*
X125547Y58759D01*
X125522Y58890D01*
X125500Y59022D01*
X125482Y59155D01*
X125468Y59289D01*
X125458Y59422D01*
X125452Y59556D01*
X125450Y59690D01*
D12*
X53360Y464058D02*
X53360Y475752D01*
X47513Y475752D01*
X45564Y473803D01*
X45564Y469905D01*
X47513Y467956D01*
X53360Y467956D01*
X49462Y467956D02*
X45564Y464058D01*
X41666Y473803D02*
X39717Y475752D01*
X35819Y475752D01*
X33870Y473803D01*
X33870Y471854D01*
X35819Y469905D01*
X33870Y467956D01*
X33870Y466007D01*
X35819Y464058D01*
X39717Y464058D01*
X41666Y466007D01*
X41666Y467956D01*
X39717Y469905D01*
X41666Y471854D01*
X41666Y473803D01*
X39717Y469905D02*
X35819Y469905D01*
X109504Y503428D02*
X109504Y515122D01*
X103657Y515122D01*
X101708Y513173D01*
X101708Y509275D01*
X103657Y507326D01*
X109504Y507326D01*
X105606Y507326D02*
X101708Y503428D01*
X97810Y511224D02*
X93912Y515122D01*
X93912Y503428D01*
X97810Y503428D02*
X90014Y503428D01*
X86116Y505377D02*
X86116Y513173D01*
X84167Y515122D01*
X80269Y515122D01*
X78320Y513173D01*
X78320Y505377D01*
X80269Y503428D01*
X84167Y503428D01*
X86116Y505377D01*
X78320Y513173D01*
X65054Y501152D02*
X65054Y489458D01*
X65054Y501152D02*
X59207Y501152D01*
X57258Y499203D01*
X57258Y495305D01*
X59207Y493356D01*
X65054Y493356D01*
X61156Y493356D02*
X57258Y489458D01*
X53360Y497254D02*
X49462Y501152D01*
X49462Y489458D01*
X53360Y489458D02*
X45564Y489458D01*
X41666Y497254D02*
X37768Y501152D01*
X37768Y489458D01*
X41666Y489458D02*
X33870Y489458D01*
X87122Y561848D02*
X87122Y573542D01*
X81275Y573542D01*
X79326Y571593D01*
X79326Y567695D01*
X81275Y565746D01*
X87122Y565746D01*
X83224Y565746D02*
X79326Y561848D01*
X75428Y569644D02*
X71530Y573542D01*
X71530Y561848D01*
X75428Y561848D02*
X67632Y561848D01*
X63734Y561848D02*
X55938Y561848D01*
X63734Y561848D02*
X55938Y569644D01*
X55938Y571593D01*
X57887Y573542D01*
X61785Y573542D01*
X63734Y571593D01*
D13*
X135900Y393790D02*
X295900Y393790D01*
X295900Y563790D01*
X135900Y563790D01*
X135900Y393790D01*
D14*
X165900Y408790D03*
D12*
X172678Y376598D02*
X176576Y376598D01*
X174627Y376598D02*
X174627Y388292D01*
X176576Y388292D02*
X172678Y388292D01*
X162933Y388292D02*
X160984Y386343D01*
X162933Y388292D02*
X166831Y388292D01*
X168780Y386343D01*
X168780Y378547D01*
X166831Y376598D01*
X162933Y376598D01*
X160984Y378547D01*
X151239Y376598D02*
X151239Y388292D01*
X157086Y382445D01*
X149290Y382445D01*
X316904Y566598D02*
X316904Y578292D01*
X316904Y566598D02*
X309108Y566598D01*
X303261Y578292D02*
X299363Y578292D01*
X303261Y578292D02*
X305210Y576343D01*
X305210Y568547D01*
X303261Y566598D01*
X299363Y566598D01*
X297414Y568547D01*
X297414Y576343D01*
X299363Y578292D01*
X293516Y578292D02*
X293516Y566598D01*
X293516Y578292D02*
X287669Y578292D01*
X285720Y576343D01*
X285720Y572445D01*
X287669Y570496D01*
X293516Y570496D01*
X289618Y570496D02*
X285720Y566598D01*
X281822Y566598D02*
X281822Y574394D01*
X277924Y578292D01*
X274026Y574394D01*
X274026Y566598D01*
X274026Y572445D02*
X281822Y572445D01*
X270128Y572445D02*
X262332Y572445D01*
X258434Y566598D02*
X258434Y578292D01*
X252587Y578292D01*
X250638Y576343D01*
X250638Y572445D01*
X252587Y570496D01*
X258434Y570496D01*
X254536Y570496D02*
X250638Y566598D01*
X246740Y566598D02*
X246740Y574394D01*
X242842Y578292D01*
X238944Y574394D01*
X238944Y566598D01*
X238944Y572445D02*
X246740Y572445D01*
X235046Y564649D02*
X227250Y564649D01*
X223352Y568547D02*
X223352Y576343D01*
X221403Y578292D01*
X217505Y578292D01*
X215556Y576343D01*
X215556Y568547D01*
X217505Y566598D01*
X221403Y566598D01*
X223352Y568547D01*
X215556Y576343D01*
X211658Y574394D02*
X207760Y578292D01*
X207760Y566598D01*
X211658Y566598D02*
X203862Y566598D01*
X199964Y564649D02*
X192168Y564649D01*
X180474Y576343D02*
X182423Y578292D01*
X186321Y578292D01*
X188270Y576343D01*
X188270Y574394D01*
X186321Y572445D01*
X182423Y572445D01*
X180474Y570496D01*
X180474Y568547D01*
X182423Y566598D01*
X186321Y566598D01*
X188270Y568547D01*
X174627Y578292D02*
X170729Y578292D01*
X174627Y578292D02*
X176576Y576343D01*
X176576Y568547D01*
X174627Y566598D01*
X170729Y566598D01*
X168780Y568547D01*
X168780Y576343D01*
X170729Y578292D01*
X164882Y566598D02*
X160984Y566598D01*
X162933Y566598D02*
X162933Y578292D01*
X164882Y578292D02*
X160984Y578292D01*
X151239Y578292D02*
X149290Y576343D01*
X151239Y578292D02*
X155137Y578292D01*
X157086Y576343D01*
X157086Y568547D01*
X155137Y566598D01*
X151239Y566598D01*
X149290Y568547D01*
D15*
X133350Y392430D02*
X133350Y364490D01*
X115570Y361950D02*
X115470Y361952D01*
X115371Y361958D01*
X115271Y361968D01*
X115173Y361981D01*
X115074Y361999D01*
X114977Y362020D01*
X114881Y362045D01*
X114785Y362074D01*
X114691Y362107D01*
X114598Y362143D01*
X114507Y362183D01*
X114417Y362227D01*
X114329Y362274D01*
X114243Y362324D01*
X114159Y362378D01*
X114077Y362435D01*
X113998Y362495D01*
X113920Y362559D01*
X113846Y362625D01*
X113774Y362694D01*
X113705Y362766D01*
X113639Y362840D01*
X113575Y362918D01*
X113515Y362997D01*
X113458Y363079D01*
X113404Y363163D01*
X113354Y363249D01*
X113307Y363337D01*
X113263Y363427D01*
X113223Y363518D01*
X113187Y363611D01*
X113154Y363705D01*
X113125Y363801D01*
X113100Y363897D01*
X113079Y363994D01*
X113061Y364093D01*
X113048Y364191D01*
X113038Y364291D01*
X113032Y364390D01*
X113030Y364490D01*
X113030Y392430D02*
X113032Y392530D01*
X113038Y392629D01*
X113048Y392729D01*
X113061Y392827D01*
X113079Y392926D01*
X113100Y393023D01*
X113125Y393119D01*
X113154Y393215D01*
X113187Y393309D01*
X113223Y393402D01*
X113263Y393493D01*
X113307Y393583D01*
X113354Y393671D01*
X113404Y393757D01*
X113458Y393841D01*
X113515Y393923D01*
X113575Y394002D01*
X113639Y394080D01*
X113705Y394154D01*
X113774Y394226D01*
X113846Y394295D01*
X113920Y394361D01*
X113998Y394425D01*
X114077Y394485D01*
X114159Y394542D01*
X114243Y394596D01*
X114329Y394646D01*
X114417Y394693D01*
X114507Y394737D01*
X114598Y394777D01*
X114691Y394813D01*
X114785Y394846D01*
X114881Y394875D01*
X114977Y394900D01*
X115074Y394921D01*
X115173Y394939D01*
X115271Y394952D01*
X115371Y394962D01*
X115470Y394968D01*
X115570Y394970D01*
X130810Y394970D02*
X130910Y394968D01*
X131009Y394962D01*
X131109Y394952D01*
X131207Y394939D01*
X131306Y394921D01*
X131403Y394900D01*
X131499Y394875D01*
X131595Y394846D01*
X131689Y394813D01*
X131782Y394777D01*
X131873Y394737D01*
X131963Y394693D01*
X132051Y394646D01*
X132137Y394596D01*
X132221Y394542D01*
X132303Y394485D01*
X132382Y394425D01*
X132460Y394361D01*
X132534Y394295D01*
X132606Y394226D01*
X132675Y394154D01*
X132741Y394080D01*
X132805Y394002D01*
X132865Y393923D01*
X132922Y393841D01*
X132976Y393757D01*
X133026Y393671D01*
X133073Y393583D01*
X133117Y393493D01*
X133157Y393402D01*
X133193Y393309D01*
X133226Y393215D01*
X133255Y393119D01*
X133280Y393023D01*
X133301Y392926D01*
X133319Y392827D01*
X133332Y392729D01*
X133342Y392629D01*
X133348Y392530D01*
X133350Y392430D01*
X133350Y364490D02*
X133348Y364390D01*
X133342Y364291D01*
X133332Y364191D01*
X133319Y364093D01*
X133301Y363994D01*
X133280Y363897D01*
X133255Y363801D01*
X133226Y363705D01*
X133193Y363611D01*
X133157Y363518D01*
X133117Y363427D01*
X133073Y363337D01*
X133026Y363249D01*
X132976Y363163D01*
X132922Y363079D01*
X132865Y362997D01*
X132805Y362918D01*
X132741Y362840D01*
X132675Y362766D01*
X132606Y362694D01*
X132534Y362625D01*
X132460Y362559D01*
X132382Y362495D01*
X132303Y362435D01*
X132221Y362378D01*
X132137Y362324D01*
X132051Y362274D01*
X131963Y362227D01*
X131873Y362183D01*
X131782Y362143D01*
X131689Y362107D01*
X131595Y362074D01*
X131499Y362045D01*
X131403Y362020D01*
X131306Y361999D01*
X131207Y361981D01*
X131109Y361968D01*
X131009Y361958D01*
X130910Y361952D01*
X130810Y361950D01*
X115570Y361950D01*
X115570Y394970D02*
X130810Y394970D01*
X113030Y392430D02*
X113030Y364490D01*
D13*
X111135Y366243D02*
X109228Y368150D01*
X111135Y366243D02*
X111135Y362430D01*
X109228Y360523D01*
X107322Y360523D01*
X105415Y362430D01*
X105415Y366243D01*
X103508Y368150D01*
X101602Y368150D01*
X99695Y366243D01*
X99695Y362430D01*
X101602Y360523D01*
X101602Y372217D02*
X99695Y374124D01*
X99695Y376030D01*
X101602Y377937D01*
X111135Y377937D01*
X111135Y376030D02*
X111135Y379844D01*
X99695Y383911D02*
X99695Y391537D01*
X99695Y383911D02*
X107322Y391537D01*
X109228Y391537D01*
X111135Y389631D01*
X111135Y385818D01*
X109228Y383911D01*
D12*
X574802Y451866D02*
X586496Y451866D01*
X586496Y457713D01*
X584547Y459662D01*
X580649Y459662D01*
X578700Y457713D01*
X578700Y451866D01*
X578700Y455764D02*
X574802Y459662D01*
X574802Y463560D02*
X586496Y463560D01*
X586496Y469407D01*
X584547Y471356D01*
X580649Y471356D01*
X578700Y469407D01*
X578700Y463560D01*
X578700Y467458D02*
X574802Y471356D01*
X584547Y483050D02*
X586496Y481101D01*
X586496Y477203D01*
X584547Y475254D01*
X582598Y475254D01*
X580649Y477203D01*
X580649Y481101D01*
X578700Y483050D01*
X576751Y483050D01*
X574802Y481101D01*
X574802Y477203D01*
X576751Y475254D01*
X574802Y490846D02*
X586496Y490846D01*
X586496Y486948D02*
X586496Y494744D01*
D13*
X535940Y538480D02*
X357940Y538480D01*
X357940Y271780D02*
X535940Y271780D01*
D12*
X510032Y502837D02*
X510032Y512582D01*
X510032Y502837D02*
X508083Y500888D01*
X504185Y500888D01*
X502236Y502837D01*
X502236Y512582D01*
X498338Y508684D02*
X494440Y512582D01*
X494440Y500888D01*
X498338Y500888D02*
X490542Y500888D01*
D10*
X590550Y234950D02*
X590550Y123190D01*
D11*
X606050Y132570D02*
X606050Y159070D01*
X627550Y159070D01*
X635050Y151570D01*
X673050Y151570D01*
X673050Y160070D01*
X684800Y160070D01*
X684800Y198070D01*
X673050Y198070D01*
X673050Y206570D01*
X635050Y206570D01*
X627550Y199070D01*
X606050Y199070D01*
X606050Y225570D01*
X591550Y217570D02*
X591550Y140570D01*
X591550Y225570D02*
X606050Y225570D01*
X606050Y132570D02*
X591550Y132570D01*
D15*
X572591Y243332D02*
X583438Y259602D01*
X572591Y259602D02*
X583438Y243332D01*
X567066Y254179D02*
X561643Y259602D01*
X561643Y243332D01*
X567066Y243332D02*
X556220Y243332D01*
D12*
X55372Y425958D02*
X55372Y437652D01*
X49525Y437652D01*
X47576Y435703D01*
X47576Y431805D01*
X49525Y429856D01*
X55372Y429856D01*
X51474Y429856D02*
X47576Y425958D01*
X43678Y433754D02*
X39780Y437652D01*
X39780Y425958D01*
X43678Y425958D02*
X35882Y425958D01*
X31984Y437652D02*
X24188Y437652D01*
X24188Y435703D01*
X31984Y427907D01*
X31984Y425958D01*
X299564Y363313D02*
X301513Y365262D01*
X305411Y365262D01*
X307360Y363313D01*
X307360Y355517D01*
X305411Y353568D01*
X301513Y353568D01*
X299564Y355517D01*
X295666Y361364D02*
X291768Y365262D01*
X291768Y353568D01*
X295666Y353568D02*
X287870Y353568D01*
D11*
X320860Y155890D02*
X320860Y143830D01*
X320860Y155890D02*
X293820Y155890D01*
X293820Y143830D01*
X320860Y143830D01*
D12*
X312720Y127413D02*
X312720Y119617D01*
X312720Y127413D02*
X310771Y129362D01*
X306873Y129362D01*
X304924Y127413D01*
X304924Y119617D01*
X306873Y117668D01*
X310771Y117668D01*
X312720Y119617D01*
X308822Y121566D02*
X304924Y117668D01*
X301026Y117668D02*
X293230Y117668D01*
X301026Y117668D02*
X293230Y125464D01*
X293230Y127413D01*
X295179Y129362D01*
X299077Y129362D01*
X301026Y127413D01*
X259852Y157460D02*
X248158Y157460D01*
X259852Y157460D02*
X259852Y163307D01*
X257903Y165256D01*
X254005Y165256D01*
X252056Y163307D01*
X252056Y157460D01*
X252056Y161358D02*
X248158Y165256D01*
X257903Y173052D02*
X259852Y176950D01*
X257903Y173052D02*
X254005Y169154D01*
X250107Y169154D01*
X248158Y171103D01*
X248158Y175001D01*
X250107Y176950D01*
X252056Y176950D01*
X254005Y175001D01*
X254005Y169154D01*
X321330Y172222D02*
X321330Y160528D01*
X321330Y172222D02*
X315483Y172222D01*
X313534Y170273D01*
X313534Y166375D01*
X315483Y164426D01*
X321330Y164426D01*
X317432Y164426D02*
X313534Y160528D01*
X309636Y172222D02*
X301840Y172222D01*
X301840Y170273D01*
X309636Y162477D01*
X309636Y160528D01*
M02*
