G04 EAGLE Gerber X2 export*
%TF.Part,Single*%
%TF.FileFunction,Paste,Top*%
%TF.FilePolarity,Positive*%
%TF.GenerationSoftware,Autodesk,EAGLE,8.6.2*%
%TF.CreationDate,2018-02-22T14:22:40Z*%
G75*
%MOMM*%
%FSLAX34Y34*%
%LPD*%
%AMOC8*
5,1,8,0,0,1.08239X$1,22.5*%
G01*
%ADD10R,1.800000X1.600000*%
%ADD11R,1.400000X1.200000*%
%ADD12R,1.500000X0.500000*%
%ADD13R,0.500000X1.500000*%
%ADD14R,1.500000X1.300000*%
%ADD15R,1.300000X1.500000*%
%ADD16R,2.500000X3.000000*%
%ADD17R,2.000000X2.500000*%
%ADD18R,2.000000X3.300000*%
%ADD19R,0.500000X3.100000*%
%ADD20R,2.200000X0.600000*%
%ADD21R,2.032000X0.660400*%
%ADD22R,5.080000X2.286000*%
%ADD23R,1.168400X1.600200*%
%ADD24R,3.400000X1.900000*%
%ADD25R,1.050000X2.200000*%
%ADD26R,1.000000X0.800000*%
%ADD27R,1.600200X1.168400*%
%ADD28R,2.286000X2.794000*%
%ADD29R,1.400000X1.000000*%
%ADD30R,0.550000X1.200000*%


D10*
X403352Y201392D03*
X403352Y229392D03*
D11*
X432816Y228868D03*
X432816Y198868D03*
D12*
X231306Y346070D03*
X231306Y338070D03*
X231306Y330070D03*
X231306Y322070D03*
X231306Y314070D03*
X231306Y306070D03*
X231306Y298070D03*
X231306Y290070D03*
X231306Y282070D03*
X231306Y274070D03*
X231306Y266070D03*
D13*
X249306Y248070D03*
X257306Y248070D03*
X265306Y248070D03*
X273306Y248070D03*
X281306Y248070D03*
X289306Y248070D03*
X297306Y248070D03*
X305306Y248070D03*
X313306Y248070D03*
X321306Y248070D03*
X329306Y248070D03*
D12*
X347306Y266070D03*
X347306Y274070D03*
X347306Y282070D03*
X347306Y290070D03*
X347306Y298070D03*
X347306Y306070D03*
X347306Y314070D03*
X347306Y322070D03*
X347306Y330070D03*
X347306Y338070D03*
X347306Y346070D03*
D13*
X329306Y364070D03*
X321306Y364070D03*
X313306Y364070D03*
X305306Y364070D03*
X297306Y364070D03*
X289306Y364070D03*
X281306Y364070D03*
X273306Y364070D03*
X265306Y364070D03*
X257306Y364070D03*
X249306Y364070D03*
D14*
X265430Y172872D03*
X265430Y191872D03*
X372872Y167284D03*
X372872Y186284D03*
D15*
X280314Y215646D03*
X299314Y215646D03*
X178587Y306578D03*
X197587Y306578D03*
D16*
X293390Y183896D03*
X345690Y183896D03*
D17*
X152450Y29690D03*
X63450Y29690D03*
D18*
X152450Y88690D03*
X63450Y88690D03*
D19*
X91950Y89690D03*
X99950Y89690D03*
X107950Y89690D03*
X115950Y89690D03*
X123950Y89690D03*
D14*
X131572Y143612D03*
X131572Y124612D03*
X110236Y143612D03*
X110236Y124612D03*
D15*
X70002Y143256D03*
X89002Y143256D03*
D14*
X332994Y416154D03*
X332994Y397154D03*
D20*
X208880Y179070D03*
X156880Y179070D03*
X208880Y166370D03*
X208880Y191770D03*
X208880Y204470D03*
X156880Y166370D03*
X156880Y191770D03*
X156880Y204470D03*
D21*
X430022Y447802D03*
X491490Y447802D03*
X430022Y435102D03*
X430022Y422402D03*
X491490Y435102D03*
X491490Y422402D03*
X430022Y409702D03*
X491490Y409702D03*
X430022Y397002D03*
X430022Y384302D03*
X491490Y397002D03*
X491490Y384302D03*
X430022Y371602D03*
X491490Y371602D03*
D14*
X401574Y467208D03*
X401574Y448208D03*
D15*
G36*
X472815Y352103D02*
X482007Y361295D01*
X492613Y350689D01*
X483421Y341497D01*
X472815Y352103D01*
G37*
G36*
X459379Y338667D02*
X468571Y347859D01*
X479177Y337253D01*
X469985Y328061D01*
X459379Y338667D01*
G37*
G36*
X494913Y341943D02*
X504105Y351135D01*
X514711Y340529D01*
X505519Y331337D01*
X494913Y341943D01*
G37*
G36*
X481477Y328507D02*
X490669Y337699D01*
X501275Y327093D01*
X492083Y317901D01*
X481477Y328507D01*
G37*
D22*
X564896Y134874D03*
X564896Y223266D03*
D23*
X238760Y132080D03*
X223520Y132080D03*
D24*
X408940Y166820D03*
X408940Y127820D03*
X469900Y166820D03*
X469900Y127820D03*
D15*
G36*
X318575Y108591D02*
X327767Y99399D01*
X317161Y88793D01*
X307969Y97985D01*
X318575Y108591D01*
G37*
G36*
X305139Y122027D02*
X314331Y112835D01*
X303725Y102229D01*
X294533Y111421D01*
X305139Y122027D01*
G37*
X426060Y97790D03*
X407060Y97790D03*
D25*
X547590Y256540D03*
X575090Y256540D03*
D26*
X561340Y271790D03*
D27*
X185420Y356870D03*
X185420Y372110D03*
D28*
X473570Y204470D03*
X514490Y204470D03*
D29*
X188800Y248310D03*
X188800Y267310D03*
X166800Y257810D03*
D15*
X206350Y222250D03*
X187350Y222250D03*
D30*
X83210Y341330D03*
X92710Y341330D03*
X102210Y341330D03*
X102210Y367330D03*
X83210Y367330D03*
D15*
X45110Y356870D03*
X64110Y356870D03*
X102260Y388620D03*
X121260Y388620D03*
D14*
X80010Y401980D03*
X80010Y420980D03*
D15*
X130150Y224790D03*
X111150Y224790D03*
X111150Y201930D03*
X130150Y201930D03*
M02*
