G04 EAGLE Gerber X2 export*
%TF.Part,Single*%
%TF.FileFunction,Paste,Bot*%
%TF.FilePolarity,Positive*%
%TF.GenerationSoftware,Autodesk,EAGLE,8.6.2*%
%TF.CreationDate,2018-02-22T14:22:40Z*%
G75*
%MOMM*%
%FSLAX34Y34*%
%LPD*%
%AMOC8*
5,1,8,0,0,1.08239X$1,22.5*%
G01*
%ADD10R,1.400000X1.200000*%
%ADD11R,1.600000X1.300000*%
%ADD12R,1.500000X1.300000*%
%ADD13R,1.300000X1.500000*%
%ADD14R,2.000000X1.270000*%
%ADD15R,1.600200X1.168400*%
%ADD16R,1.524000X1.016000*%
%ADD17R,1.016000X1.524000*%
%ADD18R,5.080000X2.286000*%
%ADD19R,1.000000X1.400000*%


D10*
X514858Y74916D03*
X514858Y104916D03*
X506984Y201436D03*
X506984Y171436D03*
D11*
X305054Y299110D03*
X305054Y318110D03*
D12*
X279908Y298602D03*
X279908Y317602D03*
D13*
X378612Y99060D03*
X397612Y99060D03*
D12*
X355092Y121768D03*
X355092Y102768D03*
D13*
X27330Y488950D03*
X46330Y488950D03*
X71780Y528320D03*
X90780Y528320D03*
X27330Y514350D03*
X46330Y514350D03*
X90780Y548640D03*
X71780Y548640D03*
D14*
X135900Y408790D03*
X135900Y428790D03*
X135900Y448790D03*
X135900Y468790D03*
X135900Y488790D03*
X135900Y508790D03*
X135900Y528790D03*
X135900Y548790D03*
X295900Y548790D03*
X295900Y528790D03*
X295900Y508790D03*
X295900Y488790D03*
X295900Y468790D03*
X295900Y448790D03*
X295900Y428790D03*
X295900Y408790D03*
D15*
X123190Y386080D03*
X123190Y370840D03*
D12*
X560578Y455320D03*
X560578Y474320D03*
D16*
X358140Y284480D03*
X358140Y347980D03*
X358140Y360680D03*
X358140Y373380D03*
X358140Y411480D03*
X358140Y424180D03*
X358140Y525780D03*
D17*
X408940Y538480D03*
X421640Y538480D03*
X434340Y538480D03*
X447040Y538480D03*
X459740Y538480D03*
X472440Y538480D03*
X485140Y538480D03*
D16*
X535940Y525780D03*
X535940Y474980D03*
X535940Y462280D03*
X535940Y449580D03*
X535940Y360680D03*
X535940Y284480D03*
X358140Y297180D03*
X358140Y309880D03*
X358140Y386080D03*
X358140Y398780D03*
X358140Y436880D03*
X358140Y449580D03*
X535940Y436880D03*
X535940Y424180D03*
X535940Y411480D03*
X535940Y398780D03*
X535940Y386080D03*
X535940Y373380D03*
X535940Y335280D03*
X535940Y322580D03*
X535940Y309880D03*
X535940Y297180D03*
X535940Y487680D03*
X535940Y500380D03*
X535940Y513080D03*
X358140Y513080D03*
X358140Y500380D03*
X358140Y487680D03*
X358140Y474980D03*
X358140Y462280D03*
X358140Y335280D03*
X358140Y322580D03*
X535940Y347980D03*
D18*
X564896Y179070D03*
X564896Y223266D03*
X564896Y134874D03*
D13*
X59030Y412750D03*
X40030Y412750D03*
X287680Y378460D03*
X306680Y378460D03*
D19*
X297840Y160860D03*
X316840Y160860D03*
X307340Y138860D03*
D12*
X273050Y183490D03*
X273050Y164490D03*
D13*
X295300Y185420D03*
X314300Y185420D03*
M02*
