%
M48
M72
T01C0.01600
T02C0.02200
T03C0.02362
T04C0.03150
T05C0.03500
T06C0.03543
T07C0.04000
%
T01
X92500Y140000
X106500Y141416
X109000Y152000
X116000Y152000
X129500Y153000
X106026Y178211
X96500Y176000
X86000Y180000
X78500Y189000
X67000Y184500
X76276Y203776
X93500Y202500
X93500Y212500
X99500Y227500
X114000Y242500
X120500Y246000
X105500Y257000
X102000Y254500
X105000Y263000
X121000Y273500
X129500Y272000
X133000Y287000
X109000Y285500
X104000Y288000
X98400Y295500
X82600Y295000
X75500Y295000
X67500Y302500
X79000Y310000
X75000Y315000
X82500Y318000
X89500Y318000
X103000Y314500
X92000Y333500
X89000Y349000
X83000Y353000
X78500Y356500
X86000Y359000
X92000Y356000
X66750Y341250
X66500Y326500
X48000Y305000
X23000Y315125
X14500Y315500
X14000Y300500
X36500Y266000
X40500Y261500
X49000Y271500
X33125Y236875
X44000Y230000
X66500Y223000
X80500Y230000
X90100Y263500
X87206Y266900
X84500Y272000
X136500Y220000
X140500Y224500
X145500Y219500
X149000Y223000
X140500Y234500
X159500Y248000
X165000Y246000
X177500Y264500
X172000Y274500
X172000Y279500
X164500Y279500
X157000Y294500
X166500Y306000
X185000Y301000
X188500Y306750
X185000Y279000
X192500Y236500
X194500Y232000
X190000Y227000
X184000Y227000
X207200Y186500
X210500Y149250
X230700Y143800
X171250Y143250
X171000Y168000
X153000Y183500
X145000Y193500
X140500Y198500
X131500Y193000
X231500Y247000
X161500Y338500
X185500Y342000
X230700Y358700
X39000Y335000
X17500Y349500
X12500Y357500
X9500Y360500
X19500Y165000
X22500Y156750
X11300Y143800
T02
X15000Y227200
X20000Y227200
X25000Y227200
X24900Y260300
X19900Y260300
X14900Y260300
X14900Y289900
X19900Y289900
X24900Y289900
T03
X62000Y298000
T04
X138610Y160687
X146484Y160687
X154358Y160687
X162232Y160687
X181734Y160687
X189608Y160687
X197482Y160687
X217358Y160687
X225232Y160687
T05
X94500Y280500
X86500Y280500
X90500Y300500
T06
X55661Y160500
X38339Y160500
X222563Y178000
X230437Y178000
T07
X195000Y176000
X185000Y176000
X121000Y171500
X121000Y161500
X111000Y161500
X111000Y171500
X101000Y171500
X91000Y171500
X91000Y161500
X101000Y161500
X81000Y161500
X81000Y171500
X172500Y253500
X182500Y253500
X192500Y253500
X202500Y253500
M30
