G04 EAGLE Gerber X2 export*
G75*
%MOMM*%
%FSLAX34Y34*%
%LPD*%
%AMOC8*
5,1,8,0,0,1.08239X$1,22.5*%
G01*
%ADD10C,0.000000*%
%ADD11R,1.800000X1.600000*%
%ADD12R,1.400000X1.200000*%
%ADD13R,1.500000X0.500000*%
%ADD14R,0.500000X1.500000*%
%ADD15R,1.500000X1.300000*%
%ADD16R,1.300000X1.500000*%
%ADD17R,2.500000X3.000000*%
%ADD18R,2.000000X2.500000*%
%ADD19R,2.000000X3.300000*%
%ADD20R,0.500000X3.100000*%
%ADD21R,2.200000X0.600000*%
%ADD22R,2.032000X0.660400*%
%ADD23R,5.080000X2.286000*%
%ADD24R,1.168400X1.600200*%
%ADD25R,3.400000X1.900000*%
%ADD26R,1.050000X2.200000*%
%ADD27R,1.000000X0.800000*%
%ADD28R,1.600200X1.168400*%
%ADD29R,2.286000X2.794000*%
%ADD30R,1.400000X1.000000*%
%ADD31R,0.550000X1.200000*%


D10*
X0Y0D02*
X591820Y0D01*
X591820Y580390D01*
X0Y580390D01*
X0Y0D01*
X572516Y17272D02*
X572518Y17362D01*
X572524Y17452D01*
X572534Y17541D01*
X572548Y17630D01*
X572566Y17718D01*
X572587Y17805D01*
X572613Y17891D01*
X572642Y17976D01*
X572675Y18060D01*
X572712Y18142D01*
X572752Y18222D01*
X572796Y18301D01*
X572843Y18377D01*
X572894Y18452D01*
X572947Y18524D01*
X573004Y18593D01*
X573064Y18660D01*
X573127Y18725D01*
X573193Y18786D01*
X573261Y18845D01*
X573332Y18900D01*
X573405Y18952D01*
X573481Y19001D01*
X573558Y19047D01*
X573638Y19089D01*
X573719Y19127D01*
X573802Y19162D01*
X573886Y19193D01*
X573972Y19221D01*
X574058Y19244D01*
X574146Y19264D01*
X574235Y19280D01*
X574324Y19292D01*
X574413Y19300D01*
X574503Y19304D01*
X574593Y19304D01*
X574683Y19300D01*
X574772Y19292D01*
X574861Y19280D01*
X574950Y19264D01*
X575038Y19244D01*
X575124Y19221D01*
X575210Y19193D01*
X575294Y19162D01*
X575377Y19127D01*
X575458Y19089D01*
X575538Y19047D01*
X575615Y19001D01*
X575691Y18952D01*
X575764Y18900D01*
X575835Y18845D01*
X575903Y18786D01*
X575969Y18725D01*
X576032Y18660D01*
X576092Y18593D01*
X576149Y18524D01*
X576202Y18452D01*
X576253Y18377D01*
X576300Y18301D01*
X576344Y18222D01*
X576384Y18142D01*
X576421Y18060D01*
X576454Y17976D01*
X576483Y17891D01*
X576509Y17805D01*
X576530Y17718D01*
X576548Y17630D01*
X576562Y17541D01*
X576572Y17452D01*
X576578Y17362D01*
X576580Y17272D01*
X576578Y17182D01*
X576572Y17092D01*
X576562Y17003D01*
X576548Y16914D01*
X576530Y16826D01*
X576509Y16739D01*
X576483Y16653D01*
X576454Y16568D01*
X576421Y16484D01*
X576384Y16402D01*
X576344Y16322D01*
X576300Y16243D01*
X576253Y16167D01*
X576202Y16092D01*
X576149Y16020D01*
X576092Y15951D01*
X576032Y15884D01*
X575969Y15819D01*
X575903Y15758D01*
X575835Y15699D01*
X575764Y15644D01*
X575691Y15592D01*
X575615Y15543D01*
X575538Y15497D01*
X575458Y15455D01*
X575377Y15417D01*
X575294Y15382D01*
X575210Y15351D01*
X575124Y15323D01*
X575038Y15300D01*
X574950Y15280D01*
X574861Y15264D01*
X574772Y15252D01*
X574683Y15244D01*
X574593Y15240D01*
X574503Y15240D01*
X574413Y15244D01*
X574324Y15252D01*
X574235Y15264D01*
X574146Y15280D01*
X574058Y15300D01*
X573972Y15323D01*
X573886Y15351D01*
X573802Y15382D01*
X573719Y15417D01*
X573638Y15455D01*
X573558Y15497D01*
X573481Y15543D01*
X573405Y15592D01*
X573332Y15644D01*
X573261Y15699D01*
X573193Y15758D01*
X573127Y15819D01*
X573064Y15884D01*
X573004Y15951D01*
X572947Y16020D01*
X572894Y16092D01*
X572843Y16167D01*
X572796Y16243D01*
X572752Y16322D01*
X572712Y16402D01*
X572675Y16484D01*
X572642Y16568D01*
X572613Y16653D01*
X572587Y16739D01*
X572566Y16826D01*
X572548Y16914D01*
X572534Y17003D01*
X572524Y17092D01*
X572518Y17182D01*
X572516Y17272D01*
X15240Y17272D02*
X15242Y17362D01*
X15248Y17452D01*
X15258Y17541D01*
X15272Y17630D01*
X15290Y17718D01*
X15311Y17805D01*
X15337Y17891D01*
X15366Y17976D01*
X15399Y18060D01*
X15436Y18142D01*
X15476Y18222D01*
X15520Y18301D01*
X15567Y18377D01*
X15618Y18452D01*
X15671Y18524D01*
X15728Y18593D01*
X15788Y18660D01*
X15851Y18725D01*
X15917Y18786D01*
X15985Y18845D01*
X16056Y18900D01*
X16129Y18952D01*
X16205Y19001D01*
X16282Y19047D01*
X16362Y19089D01*
X16443Y19127D01*
X16526Y19162D01*
X16610Y19193D01*
X16696Y19221D01*
X16782Y19244D01*
X16870Y19264D01*
X16959Y19280D01*
X17048Y19292D01*
X17137Y19300D01*
X17227Y19304D01*
X17317Y19304D01*
X17407Y19300D01*
X17496Y19292D01*
X17585Y19280D01*
X17674Y19264D01*
X17762Y19244D01*
X17848Y19221D01*
X17934Y19193D01*
X18018Y19162D01*
X18101Y19127D01*
X18182Y19089D01*
X18262Y19047D01*
X18339Y19001D01*
X18415Y18952D01*
X18488Y18900D01*
X18559Y18845D01*
X18627Y18786D01*
X18693Y18725D01*
X18756Y18660D01*
X18816Y18593D01*
X18873Y18524D01*
X18926Y18452D01*
X18977Y18377D01*
X19024Y18301D01*
X19068Y18222D01*
X19108Y18142D01*
X19145Y18060D01*
X19178Y17976D01*
X19207Y17891D01*
X19233Y17805D01*
X19254Y17718D01*
X19272Y17630D01*
X19286Y17541D01*
X19296Y17452D01*
X19302Y17362D01*
X19304Y17272D01*
X19302Y17182D01*
X19296Y17092D01*
X19286Y17003D01*
X19272Y16914D01*
X19254Y16826D01*
X19233Y16739D01*
X19207Y16653D01*
X19178Y16568D01*
X19145Y16484D01*
X19108Y16402D01*
X19068Y16322D01*
X19024Y16243D01*
X18977Y16167D01*
X18926Y16092D01*
X18873Y16020D01*
X18816Y15951D01*
X18756Y15884D01*
X18693Y15819D01*
X18627Y15758D01*
X18559Y15699D01*
X18488Y15644D01*
X18415Y15592D01*
X18339Y15543D01*
X18262Y15497D01*
X18182Y15455D01*
X18101Y15417D01*
X18018Y15382D01*
X17934Y15351D01*
X17848Y15323D01*
X17762Y15300D01*
X17674Y15280D01*
X17585Y15264D01*
X17496Y15252D01*
X17407Y15244D01*
X17317Y15240D01*
X17227Y15240D01*
X17137Y15244D01*
X17048Y15252D01*
X16959Y15264D01*
X16870Y15280D01*
X16782Y15300D01*
X16696Y15323D01*
X16610Y15351D01*
X16526Y15382D01*
X16443Y15417D01*
X16362Y15455D01*
X16282Y15497D01*
X16205Y15543D01*
X16129Y15592D01*
X16056Y15644D01*
X15985Y15699D01*
X15917Y15758D01*
X15851Y15819D01*
X15788Y15884D01*
X15728Y15951D01*
X15671Y16020D01*
X15618Y16092D01*
X15567Y16167D01*
X15520Y16243D01*
X15476Y16322D01*
X15436Y16402D01*
X15399Y16484D01*
X15366Y16568D01*
X15337Y16653D01*
X15311Y16739D01*
X15290Y16826D01*
X15272Y16914D01*
X15258Y17003D01*
X15248Y17092D01*
X15242Y17182D01*
X15240Y17272D01*
X572516Y563118D02*
X572518Y563208D01*
X572524Y563298D01*
X572534Y563387D01*
X572548Y563476D01*
X572566Y563564D01*
X572587Y563651D01*
X572613Y563737D01*
X572642Y563822D01*
X572675Y563906D01*
X572712Y563988D01*
X572752Y564068D01*
X572796Y564147D01*
X572843Y564223D01*
X572894Y564298D01*
X572947Y564370D01*
X573004Y564439D01*
X573064Y564506D01*
X573127Y564571D01*
X573193Y564632D01*
X573261Y564691D01*
X573332Y564746D01*
X573405Y564798D01*
X573481Y564847D01*
X573558Y564893D01*
X573638Y564935D01*
X573719Y564973D01*
X573802Y565008D01*
X573886Y565039D01*
X573972Y565067D01*
X574058Y565090D01*
X574146Y565110D01*
X574235Y565126D01*
X574324Y565138D01*
X574413Y565146D01*
X574503Y565150D01*
X574593Y565150D01*
X574683Y565146D01*
X574772Y565138D01*
X574861Y565126D01*
X574950Y565110D01*
X575038Y565090D01*
X575124Y565067D01*
X575210Y565039D01*
X575294Y565008D01*
X575377Y564973D01*
X575458Y564935D01*
X575538Y564893D01*
X575615Y564847D01*
X575691Y564798D01*
X575764Y564746D01*
X575835Y564691D01*
X575903Y564632D01*
X575969Y564571D01*
X576032Y564506D01*
X576092Y564439D01*
X576149Y564370D01*
X576202Y564298D01*
X576253Y564223D01*
X576300Y564147D01*
X576344Y564068D01*
X576384Y563988D01*
X576421Y563906D01*
X576454Y563822D01*
X576483Y563737D01*
X576509Y563651D01*
X576530Y563564D01*
X576548Y563476D01*
X576562Y563387D01*
X576572Y563298D01*
X576578Y563208D01*
X576580Y563118D01*
X576578Y563028D01*
X576572Y562938D01*
X576562Y562849D01*
X576548Y562760D01*
X576530Y562672D01*
X576509Y562585D01*
X576483Y562499D01*
X576454Y562414D01*
X576421Y562330D01*
X576384Y562248D01*
X576344Y562168D01*
X576300Y562089D01*
X576253Y562013D01*
X576202Y561938D01*
X576149Y561866D01*
X576092Y561797D01*
X576032Y561730D01*
X575969Y561665D01*
X575903Y561604D01*
X575835Y561545D01*
X575764Y561490D01*
X575691Y561438D01*
X575615Y561389D01*
X575538Y561343D01*
X575458Y561301D01*
X575377Y561263D01*
X575294Y561228D01*
X575210Y561197D01*
X575124Y561169D01*
X575038Y561146D01*
X574950Y561126D01*
X574861Y561110D01*
X574772Y561098D01*
X574683Y561090D01*
X574593Y561086D01*
X574503Y561086D01*
X574413Y561090D01*
X574324Y561098D01*
X574235Y561110D01*
X574146Y561126D01*
X574058Y561146D01*
X573972Y561169D01*
X573886Y561197D01*
X573802Y561228D01*
X573719Y561263D01*
X573638Y561301D01*
X573558Y561343D01*
X573481Y561389D01*
X573405Y561438D01*
X573332Y561490D01*
X573261Y561545D01*
X573193Y561604D01*
X573127Y561665D01*
X573064Y561730D01*
X573004Y561797D01*
X572947Y561866D01*
X572894Y561938D01*
X572843Y562013D01*
X572796Y562089D01*
X572752Y562168D01*
X572712Y562248D01*
X572675Y562330D01*
X572642Y562414D01*
X572613Y562499D01*
X572587Y562585D01*
X572566Y562672D01*
X572548Y562760D01*
X572534Y562849D01*
X572524Y562938D01*
X572518Y563028D01*
X572516Y563118D01*
X213995Y415290D02*
X213997Y415423D01*
X214003Y415556D01*
X214013Y415688D01*
X214027Y415821D01*
X214045Y415952D01*
X214066Y416084D01*
X214092Y416214D01*
X214122Y416344D01*
X214155Y416473D01*
X214192Y416600D01*
X214234Y416727D01*
X214278Y416852D01*
X214327Y416976D01*
X214379Y417098D01*
X214435Y417219D01*
X214495Y417338D01*
X214558Y417455D01*
X214624Y417570D01*
X214694Y417683D01*
X214767Y417794D01*
X214844Y417903D01*
X214924Y418009D01*
X215007Y418113D01*
X215093Y418215D01*
X215182Y418313D01*
X215273Y418409D01*
X215368Y418503D01*
X215466Y418593D01*
X215566Y418681D01*
X215669Y418765D01*
X215774Y418847D01*
X215881Y418925D01*
X215991Y419000D01*
X216103Y419071D01*
X216218Y419139D01*
X216334Y419204D01*
X216452Y419266D01*
X216572Y419323D01*
X216693Y419377D01*
X216816Y419428D01*
X216941Y419474D01*
X217066Y419517D01*
X217194Y419557D01*
X217322Y419592D01*
X217451Y419624D01*
X217581Y419651D01*
X217712Y419675D01*
X217843Y419695D01*
X217975Y419711D01*
X218108Y419723D01*
X218241Y419731D01*
X218374Y419735D01*
X218506Y419735D01*
X218639Y419731D01*
X218772Y419723D01*
X218905Y419711D01*
X219037Y419695D01*
X219168Y419675D01*
X219299Y419651D01*
X219429Y419624D01*
X219558Y419592D01*
X219686Y419557D01*
X219814Y419517D01*
X219939Y419474D01*
X220064Y419428D01*
X220187Y419377D01*
X220308Y419323D01*
X220428Y419266D01*
X220546Y419204D01*
X220663Y419139D01*
X220777Y419071D01*
X220889Y419000D01*
X220999Y418925D01*
X221106Y418847D01*
X221211Y418765D01*
X221314Y418681D01*
X221414Y418593D01*
X221512Y418503D01*
X221607Y418409D01*
X221698Y418313D01*
X221787Y418215D01*
X221873Y418113D01*
X221956Y418009D01*
X222036Y417903D01*
X222113Y417794D01*
X222186Y417683D01*
X222256Y417570D01*
X222322Y417455D01*
X222385Y417338D01*
X222445Y417219D01*
X222501Y417098D01*
X222553Y416976D01*
X222602Y416852D01*
X222646Y416727D01*
X222688Y416600D01*
X222725Y416473D01*
X222758Y416344D01*
X222788Y416214D01*
X222814Y416084D01*
X222835Y415952D01*
X222853Y415821D01*
X222867Y415688D01*
X222877Y415556D01*
X222883Y415423D01*
X222885Y415290D01*
X222883Y415157D01*
X222877Y415024D01*
X222867Y414892D01*
X222853Y414759D01*
X222835Y414628D01*
X222814Y414496D01*
X222788Y414366D01*
X222758Y414236D01*
X222725Y414107D01*
X222688Y413980D01*
X222646Y413853D01*
X222602Y413728D01*
X222553Y413604D01*
X222501Y413482D01*
X222445Y413361D01*
X222385Y413242D01*
X222322Y413125D01*
X222256Y413010D01*
X222186Y412897D01*
X222113Y412786D01*
X222036Y412677D01*
X221956Y412571D01*
X221873Y412467D01*
X221787Y412365D01*
X221698Y412267D01*
X221607Y412171D01*
X221512Y412077D01*
X221414Y411987D01*
X221314Y411899D01*
X221211Y411815D01*
X221106Y411733D01*
X220999Y411655D01*
X220889Y411580D01*
X220777Y411509D01*
X220662Y411441D01*
X220546Y411376D01*
X220428Y411314D01*
X220308Y411257D01*
X220187Y411203D01*
X220064Y411152D01*
X219939Y411106D01*
X219814Y411063D01*
X219686Y411023D01*
X219558Y410988D01*
X219429Y410956D01*
X219299Y410929D01*
X219168Y410905D01*
X219037Y410885D01*
X218905Y410869D01*
X218772Y410857D01*
X218639Y410849D01*
X218506Y410845D01*
X218374Y410845D01*
X218241Y410849D01*
X218108Y410857D01*
X217975Y410869D01*
X217843Y410885D01*
X217712Y410905D01*
X217581Y410929D01*
X217451Y410956D01*
X217322Y410988D01*
X217194Y411023D01*
X217066Y411063D01*
X216941Y411106D01*
X216816Y411152D01*
X216693Y411203D01*
X216572Y411257D01*
X216452Y411314D01*
X216334Y411376D01*
X216217Y411441D01*
X216103Y411509D01*
X215991Y411580D01*
X215881Y411655D01*
X215774Y411733D01*
X215669Y411815D01*
X215566Y411899D01*
X215466Y411987D01*
X215368Y412077D01*
X215273Y412171D01*
X215182Y412267D01*
X215093Y412365D01*
X215007Y412467D01*
X214924Y412571D01*
X214844Y412677D01*
X214767Y412786D01*
X214694Y412897D01*
X214624Y413010D01*
X214558Y413125D01*
X214495Y413242D01*
X214435Y413361D01*
X214379Y413482D01*
X214327Y413604D01*
X214278Y413728D01*
X214234Y413853D01*
X214192Y413980D01*
X214155Y414107D01*
X214122Y414236D01*
X214092Y414366D01*
X214066Y414496D01*
X214045Y414628D01*
X214027Y414759D01*
X214013Y414892D01*
X214003Y415024D01*
X213997Y415157D01*
X213995Y415290D01*
X203835Y364490D02*
X203837Y364623D01*
X203843Y364756D01*
X203853Y364888D01*
X203867Y365021D01*
X203885Y365152D01*
X203906Y365284D01*
X203932Y365414D01*
X203962Y365544D01*
X203995Y365673D01*
X204032Y365800D01*
X204074Y365927D01*
X204118Y366052D01*
X204167Y366176D01*
X204219Y366298D01*
X204275Y366419D01*
X204335Y366538D01*
X204398Y366655D01*
X204464Y366770D01*
X204534Y366883D01*
X204607Y366994D01*
X204684Y367103D01*
X204764Y367209D01*
X204847Y367313D01*
X204933Y367415D01*
X205022Y367513D01*
X205113Y367609D01*
X205208Y367703D01*
X205306Y367793D01*
X205406Y367881D01*
X205509Y367965D01*
X205614Y368047D01*
X205721Y368125D01*
X205831Y368200D01*
X205943Y368271D01*
X206058Y368339D01*
X206174Y368404D01*
X206292Y368466D01*
X206412Y368523D01*
X206533Y368577D01*
X206656Y368628D01*
X206781Y368674D01*
X206906Y368717D01*
X207034Y368757D01*
X207162Y368792D01*
X207291Y368824D01*
X207421Y368851D01*
X207552Y368875D01*
X207683Y368895D01*
X207815Y368911D01*
X207948Y368923D01*
X208081Y368931D01*
X208214Y368935D01*
X208346Y368935D01*
X208479Y368931D01*
X208612Y368923D01*
X208745Y368911D01*
X208877Y368895D01*
X209008Y368875D01*
X209139Y368851D01*
X209269Y368824D01*
X209398Y368792D01*
X209526Y368757D01*
X209654Y368717D01*
X209779Y368674D01*
X209904Y368628D01*
X210027Y368577D01*
X210148Y368523D01*
X210268Y368466D01*
X210386Y368404D01*
X210503Y368339D01*
X210617Y368271D01*
X210729Y368200D01*
X210839Y368125D01*
X210946Y368047D01*
X211051Y367965D01*
X211154Y367881D01*
X211254Y367793D01*
X211352Y367703D01*
X211447Y367609D01*
X211538Y367513D01*
X211627Y367415D01*
X211713Y367313D01*
X211796Y367209D01*
X211876Y367103D01*
X211953Y366994D01*
X212026Y366883D01*
X212096Y366770D01*
X212162Y366655D01*
X212225Y366538D01*
X212285Y366419D01*
X212341Y366298D01*
X212393Y366176D01*
X212442Y366052D01*
X212486Y365927D01*
X212528Y365800D01*
X212565Y365673D01*
X212598Y365544D01*
X212628Y365414D01*
X212654Y365284D01*
X212675Y365152D01*
X212693Y365021D01*
X212707Y364888D01*
X212717Y364756D01*
X212723Y364623D01*
X212725Y364490D01*
X212723Y364357D01*
X212717Y364224D01*
X212707Y364092D01*
X212693Y363959D01*
X212675Y363828D01*
X212654Y363696D01*
X212628Y363566D01*
X212598Y363436D01*
X212565Y363307D01*
X212528Y363180D01*
X212486Y363053D01*
X212442Y362928D01*
X212393Y362804D01*
X212341Y362682D01*
X212285Y362561D01*
X212225Y362442D01*
X212162Y362325D01*
X212096Y362210D01*
X212026Y362097D01*
X211953Y361986D01*
X211876Y361877D01*
X211796Y361771D01*
X211713Y361667D01*
X211627Y361565D01*
X211538Y361467D01*
X211447Y361371D01*
X211352Y361277D01*
X211254Y361187D01*
X211154Y361099D01*
X211051Y361015D01*
X210946Y360933D01*
X210839Y360855D01*
X210729Y360780D01*
X210617Y360709D01*
X210502Y360641D01*
X210386Y360576D01*
X210268Y360514D01*
X210148Y360457D01*
X210027Y360403D01*
X209904Y360352D01*
X209779Y360306D01*
X209654Y360263D01*
X209526Y360223D01*
X209398Y360188D01*
X209269Y360156D01*
X209139Y360129D01*
X209008Y360105D01*
X208877Y360085D01*
X208745Y360069D01*
X208612Y360057D01*
X208479Y360049D01*
X208346Y360045D01*
X208214Y360045D01*
X208081Y360049D01*
X207948Y360057D01*
X207815Y360069D01*
X207683Y360085D01*
X207552Y360105D01*
X207421Y360129D01*
X207291Y360156D01*
X207162Y360188D01*
X207034Y360223D01*
X206906Y360263D01*
X206781Y360306D01*
X206656Y360352D01*
X206533Y360403D01*
X206412Y360457D01*
X206292Y360514D01*
X206174Y360576D01*
X206057Y360641D01*
X205943Y360709D01*
X205831Y360780D01*
X205721Y360855D01*
X205614Y360933D01*
X205509Y361015D01*
X205406Y361099D01*
X205306Y361187D01*
X205208Y361277D01*
X205113Y361371D01*
X205022Y361467D01*
X204933Y361565D01*
X204847Y361667D01*
X204764Y361771D01*
X204684Y361877D01*
X204607Y361986D01*
X204534Y362097D01*
X204464Y362210D01*
X204398Y362325D01*
X204335Y362442D01*
X204275Y362561D01*
X204219Y362682D01*
X204167Y362804D01*
X204118Y362928D01*
X204074Y363053D01*
X204032Y363180D01*
X203995Y363307D01*
X203962Y363436D01*
X203932Y363566D01*
X203906Y363696D01*
X203885Y363828D01*
X203867Y363959D01*
X203853Y364092D01*
X203843Y364224D01*
X203837Y364357D01*
X203835Y364490D01*
X224155Y364490D02*
X224157Y364623D01*
X224163Y364756D01*
X224173Y364888D01*
X224187Y365021D01*
X224205Y365152D01*
X224226Y365284D01*
X224252Y365414D01*
X224282Y365544D01*
X224315Y365673D01*
X224352Y365800D01*
X224394Y365927D01*
X224438Y366052D01*
X224487Y366176D01*
X224539Y366298D01*
X224595Y366419D01*
X224655Y366538D01*
X224718Y366655D01*
X224784Y366770D01*
X224854Y366883D01*
X224927Y366994D01*
X225004Y367103D01*
X225084Y367209D01*
X225167Y367313D01*
X225253Y367415D01*
X225342Y367513D01*
X225433Y367609D01*
X225528Y367703D01*
X225626Y367793D01*
X225726Y367881D01*
X225829Y367965D01*
X225934Y368047D01*
X226041Y368125D01*
X226151Y368200D01*
X226263Y368271D01*
X226378Y368339D01*
X226494Y368404D01*
X226612Y368466D01*
X226732Y368523D01*
X226853Y368577D01*
X226976Y368628D01*
X227101Y368674D01*
X227226Y368717D01*
X227354Y368757D01*
X227482Y368792D01*
X227611Y368824D01*
X227741Y368851D01*
X227872Y368875D01*
X228003Y368895D01*
X228135Y368911D01*
X228268Y368923D01*
X228401Y368931D01*
X228534Y368935D01*
X228666Y368935D01*
X228799Y368931D01*
X228932Y368923D01*
X229065Y368911D01*
X229197Y368895D01*
X229328Y368875D01*
X229459Y368851D01*
X229589Y368824D01*
X229718Y368792D01*
X229846Y368757D01*
X229974Y368717D01*
X230099Y368674D01*
X230224Y368628D01*
X230347Y368577D01*
X230468Y368523D01*
X230588Y368466D01*
X230706Y368404D01*
X230823Y368339D01*
X230937Y368271D01*
X231049Y368200D01*
X231159Y368125D01*
X231266Y368047D01*
X231371Y367965D01*
X231474Y367881D01*
X231574Y367793D01*
X231672Y367703D01*
X231767Y367609D01*
X231858Y367513D01*
X231947Y367415D01*
X232033Y367313D01*
X232116Y367209D01*
X232196Y367103D01*
X232273Y366994D01*
X232346Y366883D01*
X232416Y366770D01*
X232482Y366655D01*
X232545Y366538D01*
X232605Y366419D01*
X232661Y366298D01*
X232713Y366176D01*
X232762Y366052D01*
X232806Y365927D01*
X232848Y365800D01*
X232885Y365673D01*
X232918Y365544D01*
X232948Y365414D01*
X232974Y365284D01*
X232995Y365152D01*
X233013Y365021D01*
X233027Y364888D01*
X233037Y364756D01*
X233043Y364623D01*
X233045Y364490D01*
X233043Y364357D01*
X233037Y364224D01*
X233027Y364092D01*
X233013Y363959D01*
X232995Y363828D01*
X232974Y363696D01*
X232948Y363566D01*
X232918Y363436D01*
X232885Y363307D01*
X232848Y363180D01*
X232806Y363053D01*
X232762Y362928D01*
X232713Y362804D01*
X232661Y362682D01*
X232605Y362561D01*
X232545Y362442D01*
X232482Y362325D01*
X232416Y362210D01*
X232346Y362097D01*
X232273Y361986D01*
X232196Y361877D01*
X232116Y361771D01*
X232033Y361667D01*
X231947Y361565D01*
X231858Y361467D01*
X231767Y361371D01*
X231672Y361277D01*
X231574Y361187D01*
X231474Y361099D01*
X231371Y361015D01*
X231266Y360933D01*
X231159Y360855D01*
X231049Y360780D01*
X230937Y360709D01*
X230822Y360641D01*
X230706Y360576D01*
X230588Y360514D01*
X230468Y360457D01*
X230347Y360403D01*
X230224Y360352D01*
X230099Y360306D01*
X229974Y360263D01*
X229846Y360223D01*
X229718Y360188D01*
X229589Y360156D01*
X229459Y360129D01*
X229328Y360105D01*
X229197Y360085D01*
X229065Y360069D01*
X228932Y360057D01*
X228799Y360049D01*
X228666Y360045D01*
X228534Y360045D01*
X228401Y360049D01*
X228268Y360057D01*
X228135Y360069D01*
X228003Y360085D01*
X227872Y360105D01*
X227741Y360129D01*
X227611Y360156D01*
X227482Y360188D01*
X227354Y360223D01*
X227226Y360263D01*
X227101Y360306D01*
X226976Y360352D01*
X226853Y360403D01*
X226732Y360457D01*
X226612Y360514D01*
X226494Y360576D01*
X226377Y360641D01*
X226263Y360709D01*
X226151Y360780D01*
X226041Y360855D01*
X225934Y360933D01*
X225829Y361015D01*
X225726Y361099D01*
X225626Y361187D01*
X225528Y361277D01*
X225433Y361371D01*
X225342Y361467D01*
X225253Y361565D01*
X225167Y361667D01*
X225084Y361771D01*
X225004Y361877D01*
X224927Y361986D01*
X224854Y362097D01*
X224784Y362210D01*
X224718Y362325D01*
X224655Y362442D01*
X224595Y362561D01*
X224539Y362682D01*
X224487Y362804D01*
X224438Y362928D01*
X224394Y363053D01*
X224352Y363180D01*
X224315Y363307D01*
X224282Y363436D01*
X224252Y363566D01*
X224226Y363696D01*
X224205Y363828D01*
X224187Y363959D01*
X224173Y364092D01*
X224163Y364224D01*
X224157Y364357D01*
X224155Y364490D01*
D11*
X403352Y201392D03*
X403352Y229392D03*
D12*
X432816Y228868D03*
X432816Y198868D03*
D13*
X231306Y346070D03*
X231306Y338070D03*
X231306Y330070D03*
X231306Y322070D03*
X231306Y314070D03*
X231306Y306070D03*
X231306Y298070D03*
X231306Y290070D03*
X231306Y282070D03*
X231306Y274070D03*
X231306Y266070D03*
D14*
X249306Y248070D03*
X257306Y248070D03*
X265306Y248070D03*
X273306Y248070D03*
X281306Y248070D03*
X289306Y248070D03*
X297306Y248070D03*
X305306Y248070D03*
X313306Y248070D03*
X321306Y248070D03*
X329306Y248070D03*
D13*
X347306Y266070D03*
X347306Y274070D03*
X347306Y282070D03*
X347306Y290070D03*
X347306Y298070D03*
X347306Y306070D03*
X347306Y314070D03*
X347306Y322070D03*
X347306Y330070D03*
X347306Y338070D03*
X347306Y346070D03*
D14*
X329306Y364070D03*
X321306Y364070D03*
X313306Y364070D03*
X305306Y364070D03*
X297306Y364070D03*
X289306Y364070D03*
X281306Y364070D03*
X273306Y364070D03*
X265306Y364070D03*
X257306Y364070D03*
X249306Y364070D03*
D15*
X265430Y172872D03*
X265430Y191872D03*
X372872Y167284D03*
X372872Y186284D03*
D16*
X280314Y215646D03*
X299314Y215646D03*
X178587Y306578D03*
X197587Y306578D03*
D17*
X293390Y183896D03*
X345690Y183896D03*
D18*
X152450Y29690D03*
X63450Y29690D03*
D19*
X152450Y88690D03*
X63450Y88690D03*
D20*
X91950Y89690D03*
X99950Y89690D03*
X107950Y89690D03*
X115950Y89690D03*
X123950Y89690D03*
D10*
X81450Y59690D02*
X81452Y59824D01*
X81458Y59958D01*
X81468Y60091D01*
X81482Y60225D01*
X81500Y60358D01*
X81522Y60490D01*
X81547Y60621D01*
X81577Y60752D01*
X81611Y60882D01*
X81648Y61010D01*
X81689Y61138D01*
X81734Y61264D01*
X81783Y61389D01*
X81835Y61512D01*
X81891Y61634D01*
X81951Y61754D01*
X82014Y61872D01*
X82081Y61988D01*
X82151Y62102D01*
X82225Y62214D01*
X82302Y62324D01*
X82382Y62432D01*
X82465Y62537D01*
X82551Y62639D01*
X82640Y62739D01*
X82733Y62836D01*
X82828Y62931D01*
X82926Y63022D01*
X83026Y63111D01*
X83129Y63196D01*
X83235Y63279D01*
X83343Y63358D01*
X83453Y63434D01*
X83566Y63507D01*
X83681Y63576D01*
X83797Y63642D01*
X83916Y63704D01*
X84036Y63763D01*
X84159Y63818D01*
X84282Y63870D01*
X84407Y63917D01*
X84534Y63961D01*
X84662Y64002D01*
X84791Y64038D01*
X84921Y64071D01*
X85052Y64099D01*
X85183Y64124D01*
X85316Y64145D01*
X85449Y64162D01*
X85582Y64175D01*
X85716Y64184D01*
X85850Y64189D01*
X85984Y64190D01*
X86117Y64187D01*
X86251Y64180D01*
X86385Y64169D01*
X86518Y64154D01*
X86651Y64135D01*
X86783Y64112D01*
X86914Y64086D01*
X87044Y64055D01*
X87174Y64020D01*
X87302Y63982D01*
X87429Y63940D01*
X87555Y63894D01*
X87680Y63844D01*
X87803Y63791D01*
X87924Y63734D01*
X88044Y63673D01*
X88161Y63609D01*
X88277Y63542D01*
X88391Y63471D01*
X88502Y63396D01*
X88611Y63319D01*
X88718Y63238D01*
X88823Y63154D01*
X88924Y63067D01*
X89024Y62977D01*
X89120Y62884D01*
X89214Y62788D01*
X89305Y62689D01*
X89392Y62588D01*
X89477Y62484D01*
X89559Y62378D01*
X89637Y62270D01*
X89712Y62159D01*
X89784Y62046D01*
X89853Y61930D01*
X89918Y61813D01*
X89979Y61694D01*
X90037Y61573D01*
X90091Y61451D01*
X90142Y61327D01*
X90189Y61201D01*
X90232Y61074D01*
X90271Y60946D01*
X90307Y60817D01*
X90338Y60687D01*
X90366Y60556D01*
X90390Y60424D01*
X90410Y60291D01*
X90426Y60158D01*
X90438Y60025D01*
X90446Y59891D01*
X90450Y59757D01*
X90450Y59623D01*
X90446Y59489D01*
X90438Y59355D01*
X90426Y59222D01*
X90410Y59089D01*
X90390Y58956D01*
X90366Y58824D01*
X90338Y58693D01*
X90307Y58563D01*
X90271Y58434D01*
X90232Y58306D01*
X90189Y58179D01*
X90142Y58053D01*
X90091Y57929D01*
X90037Y57807D01*
X89979Y57686D01*
X89918Y57567D01*
X89853Y57450D01*
X89784Y57334D01*
X89712Y57221D01*
X89637Y57110D01*
X89559Y57002D01*
X89477Y56896D01*
X89392Y56792D01*
X89305Y56691D01*
X89214Y56592D01*
X89120Y56496D01*
X89024Y56403D01*
X88924Y56313D01*
X88823Y56226D01*
X88718Y56142D01*
X88611Y56061D01*
X88502Y55984D01*
X88391Y55909D01*
X88277Y55838D01*
X88161Y55771D01*
X88044Y55707D01*
X87924Y55646D01*
X87803Y55589D01*
X87680Y55536D01*
X87555Y55486D01*
X87429Y55440D01*
X87302Y55398D01*
X87174Y55360D01*
X87044Y55325D01*
X86914Y55294D01*
X86783Y55268D01*
X86651Y55245D01*
X86518Y55226D01*
X86385Y55211D01*
X86251Y55200D01*
X86117Y55193D01*
X85984Y55190D01*
X85850Y55191D01*
X85716Y55196D01*
X85582Y55205D01*
X85449Y55218D01*
X85316Y55235D01*
X85183Y55256D01*
X85052Y55281D01*
X84921Y55309D01*
X84791Y55342D01*
X84662Y55378D01*
X84534Y55419D01*
X84407Y55463D01*
X84282Y55510D01*
X84159Y55562D01*
X84036Y55617D01*
X83916Y55676D01*
X83797Y55738D01*
X83681Y55804D01*
X83566Y55873D01*
X83453Y55946D01*
X83343Y56022D01*
X83235Y56101D01*
X83129Y56184D01*
X83026Y56269D01*
X82926Y56358D01*
X82828Y56449D01*
X82733Y56544D01*
X82640Y56641D01*
X82551Y56741D01*
X82465Y56843D01*
X82382Y56948D01*
X82302Y57056D01*
X82225Y57166D01*
X82151Y57278D01*
X82081Y57392D01*
X82014Y57508D01*
X81951Y57626D01*
X81891Y57746D01*
X81835Y57868D01*
X81783Y57991D01*
X81734Y58116D01*
X81689Y58242D01*
X81648Y58370D01*
X81611Y58498D01*
X81577Y58628D01*
X81547Y58759D01*
X81522Y58890D01*
X81500Y59022D01*
X81482Y59155D01*
X81468Y59289D01*
X81458Y59422D01*
X81452Y59556D01*
X81450Y59690D01*
X125450Y59690D02*
X125452Y59824D01*
X125458Y59958D01*
X125468Y60091D01*
X125482Y60225D01*
X125500Y60358D01*
X125522Y60490D01*
X125547Y60621D01*
X125577Y60752D01*
X125611Y60882D01*
X125648Y61010D01*
X125689Y61138D01*
X125734Y61264D01*
X125783Y61389D01*
X125835Y61512D01*
X125891Y61634D01*
X125951Y61754D01*
X126014Y61872D01*
X126081Y61988D01*
X126151Y62102D01*
X126225Y62214D01*
X126302Y62324D01*
X126382Y62432D01*
X126465Y62537D01*
X126551Y62639D01*
X126640Y62739D01*
X126733Y62836D01*
X126828Y62931D01*
X126926Y63022D01*
X127026Y63111D01*
X127129Y63196D01*
X127235Y63279D01*
X127343Y63358D01*
X127453Y63434D01*
X127566Y63507D01*
X127681Y63576D01*
X127797Y63642D01*
X127916Y63704D01*
X128036Y63763D01*
X128159Y63818D01*
X128282Y63870D01*
X128407Y63917D01*
X128534Y63961D01*
X128662Y64002D01*
X128791Y64038D01*
X128921Y64071D01*
X129052Y64099D01*
X129183Y64124D01*
X129316Y64145D01*
X129449Y64162D01*
X129582Y64175D01*
X129716Y64184D01*
X129850Y64189D01*
X129984Y64190D01*
X130117Y64187D01*
X130251Y64180D01*
X130385Y64169D01*
X130518Y64154D01*
X130651Y64135D01*
X130783Y64112D01*
X130914Y64086D01*
X131044Y64055D01*
X131174Y64020D01*
X131302Y63982D01*
X131429Y63940D01*
X131555Y63894D01*
X131680Y63844D01*
X131803Y63791D01*
X131924Y63734D01*
X132044Y63673D01*
X132161Y63609D01*
X132277Y63542D01*
X132391Y63471D01*
X132502Y63396D01*
X132611Y63319D01*
X132718Y63238D01*
X132823Y63154D01*
X132924Y63067D01*
X133024Y62977D01*
X133120Y62884D01*
X133214Y62788D01*
X133305Y62689D01*
X133392Y62588D01*
X133477Y62484D01*
X133559Y62378D01*
X133637Y62270D01*
X133712Y62159D01*
X133784Y62046D01*
X133853Y61930D01*
X133918Y61813D01*
X133979Y61694D01*
X134037Y61573D01*
X134091Y61451D01*
X134142Y61327D01*
X134189Y61201D01*
X134232Y61074D01*
X134271Y60946D01*
X134307Y60817D01*
X134338Y60687D01*
X134366Y60556D01*
X134390Y60424D01*
X134410Y60291D01*
X134426Y60158D01*
X134438Y60025D01*
X134446Y59891D01*
X134450Y59757D01*
X134450Y59623D01*
X134446Y59489D01*
X134438Y59355D01*
X134426Y59222D01*
X134410Y59089D01*
X134390Y58956D01*
X134366Y58824D01*
X134338Y58693D01*
X134307Y58563D01*
X134271Y58434D01*
X134232Y58306D01*
X134189Y58179D01*
X134142Y58053D01*
X134091Y57929D01*
X134037Y57807D01*
X133979Y57686D01*
X133918Y57567D01*
X133853Y57450D01*
X133784Y57334D01*
X133712Y57221D01*
X133637Y57110D01*
X133559Y57002D01*
X133477Y56896D01*
X133392Y56792D01*
X133305Y56691D01*
X133214Y56592D01*
X133120Y56496D01*
X133024Y56403D01*
X132924Y56313D01*
X132823Y56226D01*
X132718Y56142D01*
X132611Y56061D01*
X132502Y55984D01*
X132391Y55909D01*
X132277Y55838D01*
X132161Y55771D01*
X132044Y55707D01*
X131924Y55646D01*
X131803Y55589D01*
X131680Y55536D01*
X131555Y55486D01*
X131429Y55440D01*
X131302Y55398D01*
X131174Y55360D01*
X131044Y55325D01*
X130914Y55294D01*
X130783Y55268D01*
X130651Y55245D01*
X130518Y55226D01*
X130385Y55211D01*
X130251Y55200D01*
X130117Y55193D01*
X129984Y55190D01*
X129850Y55191D01*
X129716Y55196D01*
X129582Y55205D01*
X129449Y55218D01*
X129316Y55235D01*
X129183Y55256D01*
X129052Y55281D01*
X128921Y55309D01*
X128791Y55342D01*
X128662Y55378D01*
X128534Y55419D01*
X128407Y55463D01*
X128282Y55510D01*
X128159Y55562D01*
X128036Y55617D01*
X127916Y55676D01*
X127797Y55738D01*
X127681Y55804D01*
X127566Y55873D01*
X127453Y55946D01*
X127343Y56022D01*
X127235Y56101D01*
X127129Y56184D01*
X127026Y56269D01*
X126926Y56358D01*
X126828Y56449D01*
X126733Y56544D01*
X126640Y56641D01*
X126551Y56741D01*
X126465Y56843D01*
X126382Y56948D01*
X126302Y57056D01*
X126225Y57166D01*
X126151Y57278D01*
X126081Y57392D01*
X126014Y57508D01*
X125951Y57626D01*
X125891Y57746D01*
X125835Y57868D01*
X125783Y57991D01*
X125734Y58116D01*
X125689Y58242D01*
X125648Y58370D01*
X125611Y58498D01*
X125577Y58628D01*
X125547Y58759D01*
X125522Y58890D01*
X125500Y59022D01*
X125482Y59155D01*
X125468Y59289D01*
X125458Y59422D01*
X125452Y59556D01*
X125450Y59690D01*
D15*
X131572Y143612D03*
X131572Y124612D03*
X110236Y143612D03*
X110236Y124612D03*
D16*
X70002Y143256D03*
X89002Y143256D03*
D15*
X332994Y416154D03*
X332994Y397154D03*
D21*
X208880Y179070D03*
X156880Y179070D03*
X208880Y166370D03*
X208880Y191770D03*
X208880Y204470D03*
X156880Y166370D03*
X156880Y191770D03*
X156880Y204470D03*
D22*
X430022Y447802D03*
X491490Y447802D03*
X430022Y435102D03*
X430022Y422402D03*
X491490Y435102D03*
X491490Y422402D03*
X430022Y409702D03*
X491490Y409702D03*
X430022Y397002D03*
X430022Y384302D03*
X491490Y397002D03*
X491490Y384302D03*
X430022Y371602D03*
X491490Y371602D03*
D15*
X401574Y467208D03*
X401574Y448208D03*
D16*
G36*
X472815Y352103D02*
X482007Y361295D01*
X492613Y350689D01*
X483421Y341497D01*
X472815Y352103D01*
G37*
G36*
X459379Y338667D02*
X468571Y347859D01*
X479177Y337253D01*
X469985Y328061D01*
X459379Y338667D01*
G37*
G36*
X494913Y341943D02*
X504105Y351135D01*
X514711Y340529D01*
X505519Y331337D01*
X494913Y341943D01*
G37*
G36*
X481477Y328507D02*
X490669Y337699D01*
X501275Y327093D01*
X492083Y317901D01*
X481477Y328507D01*
G37*
D10*
X590550Y234950D02*
X590550Y123190D01*
D23*
X564896Y134874D03*
X564896Y223266D03*
D24*
X238760Y132080D03*
X223520Y132080D03*
D25*
X408940Y166820D03*
X408940Y127820D03*
X469900Y166820D03*
X469900Y127820D03*
D16*
G36*
X318575Y108591D02*
X327767Y99399D01*
X317161Y88793D01*
X307969Y97985D01*
X318575Y108591D01*
G37*
G36*
X305139Y122027D02*
X314331Y112835D01*
X303725Y102229D01*
X294533Y111421D01*
X305139Y122027D01*
G37*
X426060Y97790D03*
X407060Y97790D03*
D26*
X547590Y256540D03*
X575090Y256540D03*
D27*
X561340Y271790D03*
D28*
X185420Y356870D03*
X185420Y372110D03*
D29*
X473570Y204470D03*
X514490Y204470D03*
D30*
X188800Y248310D03*
X188800Y267310D03*
X166800Y257810D03*
D16*
X206350Y222250D03*
X187350Y222250D03*
D31*
X83210Y341330D03*
X92710Y341330D03*
X102210Y341330D03*
X102210Y367330D03*
X83210Y367330D03*
D16*
X45110Y356870D03*
X64110Y356870D03*
X102260Y388620D03*
X121260Y388620D03*
D15*
X80010Y401980D03*
X80010Y420980D03*
D16*
X130150Y224790D03*
X111150Y224790D03*
X111150Y201930D03*
X130150Y201930D03*
M02*
