M48
;GenerationSoftware,Autodesk,EAGLE,8.6.2*%
;CreationDate,2018-02-22T17:09:23Z*%
FMAT,2
ICI,OFF
METRIC,TZ,000.000
T7C0.406
T6C0.559
T5C0.600
T4C0.800
T3C0.889
T2C0.900
T1C1.016
%
G90
M71
T1
X48387Y9906
X29591Y6223
X27051Y6223
X24511Y6223
X21971Y6223
X29591Y8763
X19431Y6223
X45847Y9906
X19431Y8763
X50292Y29591
X47752Y29591
X45212Y29591
X42672Y29591
X21971Y8763
X24511Y8763
X27051Y8763
T2
X57388Y10414
X12995Y5969
X55388Y10414
X8595Y5969
T3
X21844Y41529
X20828Y36449
X22860Y36449
T4
X45017Y6016
X47017Y6016
X49017Y6016
X54066Y6016
X56066Y6016
X34064Y6016
X36064Y6016
X38064Y6016
X40064Y6016
T5
X14605Y40894
T6
X3912Y31318
X5207Y22911
X3937Y22911
X2642Y38837
X5182Y38837
X3912Y38837
X2667Y22911
X5182Y31318
X2642Y31318
T7
X42545Y34925
X40640Y36195
X57658Y27940
X16002Y42037
X22225Y49911
X39878Y51181
X45974Y52070
X28321Y3810
X25908Y1122
X2032Y56007
X26543Y3810
X22352Y762
X1270Y56769
X24130Y22987
X15748Y48133
X2413Y41529
X21463Y53848
X31750Y34290
X25527Y32004
X42355Y1587
X4572Y5017
X46736Y43117
X42291Y7874
X2540Y45339
X45593Y22860
X35687Y14351
X34544Y24765
X24765Y29845
X7271Y25368
X41148Y42926
X45847Y41656
X45847Y36068
X43942Y32385
X18231Y16961
X22606Y16637
X23368Y9906
X27813Y26797
X19304Y23622
X25788Y10468
X38735Y40005
X39370Y28194
X25273Y38354
X11049Y42672
X10033Y23622
X29591Y34671
X11303Y34163
X26543Y37719
X22606Y19177
X15748Y21844
X29464Y27686
X42545Y36195
X18796Y13208
X32639Y38100
X19812Y45974
X18034Y40132
X57455Y1727
X1727Y1727
X57455Y56312
X19837Y40132
X21590Y45974
X25019Y45085
X17907Y45212
X8128Y32766
X21007Y32995
X9144Y31623
X21742Y32131
X8763Y50292
X19939Y54864
X15811Y51879
X22225Y55626
X34544Y22225
X34544Y15621
X37719Y11811
X33528Y21082
X47752Y25273
X36703Y21844
X35814Y20955
X32258Y14224
X48260Y24130
X23851Y40259
X40767Y27686
X52324Y3111
X51486Y12573
X47117Y22860
X3810Y7112
X3302Y53975
X20701Y56388
X31750Y4064
X15875Y12065
X20701Y10922
X4699Y45244
X18796Y55753
X25654Y30480
X20320Y34290
X18923Y43942
M30